<svg xmlns="http://www.w3.org/2000/svg" xmlns:xlink="http://www.w3.org/1999/xlink" x="0" y="0" version="1.1" style="enable-background:new 0 0 750 500" viewBox="67.45 64.93 634.65 378.02" xml:space="preserve"><g id="objects"><g><g><g><path style="fill:#f2ac30" d="M604.793,232.816c3.146,4.629,7.937,7.617,3.445,11.853 c-5.012,4.727-18.811,19.063-18.811,19.063l12.4,27.213c0,0,19.44-19.623,29.621-30.545 c10.182-10.922,15.678-22.168,9.014-33.833C633.799,214.905,604.793,232.816,604.793,232.816z"/><g><path style="fill:#f2ac30" d="M604.361,233.068c1.343,1.897,2.94,3.598,4.251,5.515c1.788,2.617,0.456,4.589-1.542,6.509 c-2.421,2.328-4.773,4.725-7.129,7.117c-3.645,3.699-7.265,7.426-10.867,11.168c-0.168,0.174-0.174,0.395-0.078,0.605 c4.134,9.07,8.267,18.143,12.4,27.213c0.136,0.297,0.575,0.313,0.785,0.102c4.986-5.035,9.947-10.094,14.89-15.172 c3.874-3.979,7.732-7.971,11.555-11.998c4.35-4.582,8.61-9.211,11.729-14.748c2.811-4.99,4.147-10.612,3.133-16.29 c-0.686-3.839-2.506-8.335-6.261-10.052c-6.347-2.904-14.947,0.738-20.81,3.243c-4.079,1.743-8.096,3.776-11.876,6.104 c-0.549,0.337-0.047,1.203,0.504,0.863c4.727-2.91,9.802-5.381,14.982-7.359c3.809-1.455,7.846-2.649,11.945-2.764 c4.889-0.137,7.6,2.156,9.451,6.544c5.775,13.689-6.15,26.031-14.796,35.111c-7.118,7.477-14.346,14.85-21.59,22.201 c-1.186,1.205-2.373,2.408-3.563,3.609c0.262,0.033,0.523,0.066,0.785,0.102c-4.12-9.043-8.24-18.084-12.359-27.125 c-0.148-0.322-0.319,0.725-0.019,0.412c0.194-0.201,0.388-0.402,0.582-0.603c0.916-0.949,1.833-1.897,2.751-2.844 c2.884-2.977,5.778-5.941,8.69-8.889c1.415-1.434,2.836-2.859,4.268-4.275c1.146-1.131,2.758-2.293,3.578-3.684 c2.518-4.262-2.273-7.939-4.525-11.121C604.855,232.042,603.988,232.54,604.361,233.068z"/></g></g><g><path style="fill:#32015c" d="M522.508,313.806c-0.595,8.133-7.848,84.971-11.943,128.21h45.148l12.336-105.72l10.139,105.72 h51.559c-3.691-36.463-9.656-94.718-11.16-105.44c-2.223-15.828-5.277-43.781-18.605-66.551 c-9.164-1.389-82.748,15.736-82.748,15.736C518.898,290.757,523.342,302.421,522.508,313.806z"/><g><path style="fill:#32015c" d="M514.45,395.599c-1.457,15.473-2.926,30.944-4.391,46.417h0.997 c2.033-21.462,4.068-42.924,6.084-64.388c1.997-21.26,4.296-42.525,5.867-63.822c0.588-9.601-2.118-18.691-5.127-27.68 c10.155-2.359,20.334-4.617,30.526-6.807c15.219-3.271,30.603-6.898,46.097-8.598c1.297-0.143,4.757-0.941,5.471,0.291 c3.635,6.275,6.441,13.004,8.766,19.863c4.026,11.885,6.313,24.279,8.095,36.674c1.835,12.768,3.203,25.584,4.568,38.41 c2.697,25.344,5.289,50.698,7.848,76.056h0.999c-2.44-24.17-4.913-48.336-7.469-72.493 c-1.301-12.297-2.558-24.602-4.233-36.854c-1.612-11.789-3.487-23.529-6.678-35.01c-1.791-6.443-4.046-12.754-6.792-18.852 c-1.392-3.094-2.967-6.102-4.666-9.037c-0.267-0.459-1.373-0.324-1.816-0.326c-5.356-0.021-10.836,1.156-16.087,2.064 c-8.239,1.428-16.438,3.084-24.625,4.785c-13.138,2.73-26.242,5.631-39.318,8.645c-0.489,0.113-0.977,0.227-1.466,0.34 c-0.255,0.059-0.434,0.363-0.35,0.615c3.047,9.066,5.851,18.219,5.258,27.912C519.994,341.101,517.018,368.353,514.45,395.599z"/><path style="fill:#32015c" d="M568.549,336.296c-0.063-0.648-0.926-0.637-1,0c-2.579,22.102-5.158,44.203-7.736,66.305 c-1.533,13.139-3.066,26.276-4.599,39.415h0.999c1.572-13.469,3.143-26.936,4.715-40.405 c2.358-20.203,4.715-40.407,7.072-60.61c1.977,20.617,3.955,41.235,5.932,61.851c1.252,13.056,2.504,26.11,3.756,39.165h1.001 c-1.3-13.552-2.601-27.104-3.899-40.655C572.709,379.671,570.629,357.983,568.549,336.296z"/></g></g><path style="fill:#ffd4d4" d="M390.982,172.653c-1.109-3.331-5.736-16.477-5.736-16.477s-13.514-8.514-19.438-11.846 c-5.925-3.331-8.516-14.809,1.11-17.587c2.592-4.813,6.552-5.234,8.773-3.938c1.479-10.922,7.005-12.238,13.115-10.201 c6.108,2.037,9.828,7.283,13.529,15.612c3.703,8.331,4.568,12.78,7.715,21.11c3.147,8.333,5.553,14.627,5.553,14.627 S408.383,179.133,390.982,172.653z"/><path style="fill:#d4336e" d="M395.426,144.884c0,8.181-6.631,14.811-14.809,14.811c-8.179,0-14.81-6.63-14.81-14.811 c0-8.178,6.631-14.808,14.81-14.808C388.795,130.077,395.426,136.706,395.426,144.884z"/><path style="fill:#ffd4d4" d="M363.54,142.896c2.084,2.36,5.554,1.11,4.999-4.025c3.47-0.279,4.164-5.138,7.358-9.442 c1.388,5.555,3.888,6.248,5.693,5.414c1.805-0.833,3.332-1.943,3.469-7.08c0.141-5.137,1.668-6.525,3.889-5.831 c2.223,0.694,4.166,5.831,6.941,12.218c2.775,6.387,3.055,11.385-0.973,12.355c-4.025,0.974-7.635,2.5-9.994,6.804 c-2.361,4.304,0.416,8.469,7.775,5.276c7.357-3.193,9.578-8.331,9.578-8.331s-0.139-12.911-4.441-23.462 c-4.305-10.553-14.025-8.332-14.025-8.332l-11.522,8.609l-9.163,9.857"/><g><path style="fill:#495edb" d="M532.229,134.149c5.367,0.463,11.016-5.554,9.719-12.773c-1.295-7.22-12.682,3.795-12.682,3.795 L532.229,134.149z"/><g><path style="fill:#495edb" d="M532.229,134.649c4.09,0.178,7.394-2.488,9.212-5.986c1.152-2.22,2.479-8.172-0.385-9.805 c-3.819-2.177-9.643,3.553-12.144,5.959c-0.123,0.118-0.183,0.322-0.129,0.486c0.988,2.993,1.976,5.986,2.963,8.978 c0.201,0.609,1.167,0.349,0.965-0.266c-0.843-2.554-1.685-5.108-2.528-7.662c-0.132-0.398-0.263-0.796-0.394-1.195 c0.034,0.103-0.352,0.531,0.178,0.038c0.852-0.791,1.743-1.539,2.653-2.263c1.673-1.329,6.835-5.489,8.541-2.455 c1.439,2.561,0.125,6.568-1.235,8.847c-1.6,2.68-4.57,4.458-7.696,4.322C531.584,133.621,531.586,134.621,532.229,134.649z"/></g></g><path style="fill:#ffd4d4" d="M477.248,103.235c-1.111,7.033-2.408,13.098,3.887,24.389c6.295,11.292,8.516,25.5,29.248,22.63 c1.668,4.629,2.594,9.441,2.594,9.441l27.211-5.923l-8.701-26.475c11.57-3.422,11.381-10.694,9.344-15.507 c-2.035-4.814-20.08-23.92-26.561-25.586C507.791,84.537,483.912,85.835,477.248,103.235z"/><path d="M508.732,124.126c1.707-1.907-1.41-6.015-3.215-4.282C503.709,121.577,507.332,125.693,508.732,124.126z"/><path d="M489.713,126.626c1.705-1.91-1.412-6.015-3.219-4.282C484.689,124.074,488.313,128.193,489.713,126.626z"/><g><path d="M498.213,135.483c-1.734,0-3.448-0.474-5.239-1.45c-2.417-1.612-2.179-3.928-1.631-5.984 c1.176-5.083-1.208-9.534-6.543-12.196c-0.247-0.123-0.347-0.423-0.224-0.67c0.124-0.247,0.422-0.348,0.671-0.224 c5.697,2.843,8.339,7.828,7.066,13.332c-0.574,2.155-0.575,3.717,1.177,4.888c1.602,0.87,3.159,1.304,4.723,1.304 c0.276,0,0.5,0.224,0.5,0.5S498.489,135.483,498.213,135.483z"/></g><g><path d="M499.277,139.277c-0.227,0-0.432-0.154-0.486-0.383c-0.064-0.269,0.102-0.539,0.37-0.603 c4.159-0.998,7.235-2.97,10.286-6.593c0.179-0.212,0.493-0.239,0.705-0.061c0.211,0.178,0.238,0.493,0.061,0.704 c-3.199,3.8-6.435,5.871-10.819,6.922C499.354,139.273,499.315,139.277,499.277,139.277z"/></g><g><path d="M510.662,150.568c-0.2,0-0.39-0.121-0.466-0.319c-0.101-0.257,0.027-0.547,0.285-0.647 c3.104-1.205,6.002-3.189,8.614-5.895l0.42-0.478c1.137-1.288,2.312-2.619,3.107-4.128c0.82-1.548,1.558-3.209,2.193-4.938 c0.569-1.516,1.175-3.261,1.175-4.827c0-0.276,0.224-0.5,0.5-0.5c0.276,0,0.5,0.224,0.5,0.5c0,1.733-0.639,3.58-1.237,5.175 c-0.649,1.768-1.406,3.47-2.247,5.056c-0.85,1.614-2.065,2.991-3.24,4.323l-0.434,0.493c-2.73,2.829-5.748,4.893-8.988,6.151 C510.783,150.557,510.723,150.568,510.662,150.568z"/></g><g><path style="fill:#495edb" d="M500.852,114.711c-0.74-2.406,2.127-3.982,6.201-2.314c4.072,1.666,4.873,3.528,3.609,3.239 C503.352,113.971,501.314,115.729,500.852,114.711z"/><g><path style="fill:#495edb" d="M501.334,114.579c-0.818-3.496,4.543-2.147,6.115-1.471c1.024,0.441,2.022,1.021,2.847,1.774 c0.069,0.074,0.14,0.147,0.209,0.221c0.15,0.419,0.247,0.437,0.29,0.051c-0.702-0.105-1.402-0.291-2.104-0.414 c-1.654-0.288-3.338-0.403-5.015-0.338c-0.337,0.013-2.204,0.394-2.394,0.057c-0.315-0.562-1.18-0.058-0.863,0.505 c0.643,1.145,2.998,0.437,3.998,0.417c2.151-0.043,4.192,0.45,6.303,0.766c0.47,0.07,0.99-0.183,0.99-0.718 c0-0.759-0.836-1.43-1.379-1.819c-1.637-1.172-3.544-2.028-5.537-2.34c-2.357-0.369-5.065,0.84-4.426,3.574 C500.517,115.472,501.48,115.206,501.334,114.579z"/></g></g><g><path style="fill:#495edb" d="M486.412,115.729c-2.594-1.48-6.018-2.313-7.127-0.833c-1.111,1.482-0.186,3.24,0.926,3.147 c1.109-0.093,5.369-0.833,7.035-0.649C488.17,117.395,487.246,116.378,486.412,115.729z"/><g><path style="fill:#495edb" d="M486.664,115.297c-1.796-0.983-4.838-2.448-6.898-1.388c-1.505,0.774-2.267,3.672-0.317,4.466 c0.781,0.319,1.674,0.059,2.484-0.052c1.368-0.188,2.738-0.368,4.119-0.445c0.693-0.039,1.591,0.243,2.011-0.449 c0.438-0.722-0.892-1.719-1.297-2.055c-0.492-0.409-1.204,0.294-0.707,0.707c0.244,0.203,1.266,0.802,0.646,0.784 c-0.591-0.018-1.188,0.043-1.775,0.094c-1.204,0.105-2.403,0.282-3.6,0.446c-0.372,0.051-0.744,0.1-1.118,0.137 c-0.765-0.125-1.059-0.661-0.881-1.609c0.14-0.987,0.942-1.231,1.72-1.309c1.732-0.173,3.643,0.732,5.11,1.535 C486.726,116.47,487.23,115.607,486.664,115.297z"/></g></g><g><path style="fill:#495edb" d="M516.957,92.312c-1.297,6.665,0.369,19.899,6.848,26.842c6.48,6.941,5.555-5.461,4.814-7.497 c3.701-4.256,10.715-5.053,13.402,1.797c0.834,2.774-0.607,7.921-0.607,7.921c4.834-1.834,7.199-8.792,5.439-12.68 c-1.76-3.887-2.406-11.478-1.943-17.402c0.461-5.922-5.463-19.343-21.846-15.087c-4.639-8.063-9.408-9.589-17.795-8.333 c-7.617,1.141-16.142-4.021-22.529-1.893c-4.223,1.408-6.695,5.97-0.309,12.356c-9.904-2.777-18.789-2.406-22.676,7.404 c-3.889,9.812,1.107,22.491,16.568,22.77c0.369-3.379,1.34-6.225,1.34-6.225c1.203,7.22,7.266,7.334,12.912,2.984 c5.646-4.35,10.09-10.829,10.09-10.829c-2.223,6.017-0.279,6.757,4.072,6.295C509.09,100.273,514.088,93.514,516.957,92.312z"/><g><path style="fill:#495edb" d="M516.475,92.179c-1.183,6.543-0.018,13.692,2.394,19.826c0.742,1.888,6.001,12.563,9.404,9.27 c1.237-1.198,1.32-3.21,1.365-4.823c0.028-1.018-0.049-2.04-0.168-3.051c-0.13-1.1-0.496-1.436,0.285-2.194 c2.881-2.799,7.397-3.174,10.244-0.206c2.627,2.739,1.838,6.936,0.933,10.242c-0.127,0.463,0.353,0.728,0.734,0.564 c4.099-1.754,6.337-6.259,6.257-10.586c-0.039-2.13-1.215-4.135-1.698-6.184c-0.818-3.47-0.98-7.115-0.953-10.667 c0.026-3.653,0.187-6.501-1.313-9.927c-1.466-3.345-4.074-6.107-7.288-7.813c-1.671-0.887-3.589-1.43-5.467-1.618 c-1.273-0.129-2.526-0.139-3.804-0.056c-0.772,0.05-3.921,0.969-4.301,0.324c-2.333-3.957-5.585-7.151-10.205-8.047 c-2.272-0.44-4.638-0.244-6.914,0.041c-3.699,0.462-7.122-0.035-10.743-0.843c-4.698-1.048-10.445-2.825-14.803,0.168 c-4.756,3.267-1.327,9,1.645,12.093c0.162-0.278,0.324-0.557,0.486-0.835c-5.072-1.387-11.155-2.57-16.148-0.236 c-4.725,2.208-7.579,7.086-8.238,12.164c-0.607,4.678,0.524,9.261,3.46,12.976c3.504,4.432,9.262,6.081,14.686,6.252 c0.298,0.009,0.467-0.237,0.5-0.5c0.26-2.061,0.665-4.118,1.322-6.092c-0.321,0-0.644,0-0.965,0 c1.192,6.076,6.093,7.496,11.301,4.821c5.105-2.621,9.395-7.886,12.615-12.546c-0.305-0.128-0.609-0.257-0.914-0.385 c-0.618,1.754-1.522,4.073-0.472,5.843c0.842,1.42,3.113,1.235,4.473,1.138c5.639-0.402,8.342-6.307,13.024-8.545 c0.582-0.278,0.074-1.14-0.504-0.863c-3.472,1.659-5.896,5.177-9.138,7.243c-1.734,1.105-3.929,1.489-5.95,1.103 c-2.517-0.48-0.983-4.194-0.469-5.653c0.199-0.566-0.61-0.825-0.914-0.385c-2.469,3.572-5.459,6.847-8.731,9.69 c-2.199,1.911-4.804,3.583-7.776,3.811c-3.373,0.258-5.014-2.65-5.58-5.537c-0.102-0.518-0.819-0.436-0.965,0 c-0.685,2.063-1.086,4.205-1.357,6.357c0.167-0.166,0.333-0.333,0.5-0.5c-5.152-0.163-10.085-1.667-13.637-5.556 c-2.861-3.133-3.921-7.494-3.628-11.639c0.345-4.884,2.95-9.78,7.347-12.093c4.798-2.524,10.96-1.252,15.893,0.096 c0.489,0.134,0.831-0.477,0.486-0.835c-3.359-3.496-5.979-9.302,0.088-11.521c4.966-1.816,11.091,0.88,16.034,1.718 c4.62,0.784,9.124-0.688,13.721,0.015c4.702,0.72,7.723,4.392,10.005,8.263c0.116,0.197,0.346,0.284,0.564,0.229 c5.483-1.346,11.216-1.082,15.721,2.632c2.99,2.466,4.981,6.299,5.45,10.13c0.293,2.397-0.132,4.903-0.08,7.318 c0.066,3.087,0.42,6.189,1.128,9.196c0.677,2.869,1.879,4.909,1.249,7.979c-0.623,3.041-2.639,5.773-5.503,6.999 c0.244,0.188,0.489,0.376,0.734,0.564c1.174-4.289,1.607-8.791-2.013-12.006c-3.547-3.151-8.777-1.285-11.618,1.802 c-0.118,0.128-0.184,0.313-0.129,0.486c0.651,1.994,0.648,4.43,0.364,6.487c-0.703,5.102-4.819,0.179-6.248-1.904 c-4.463-6.508-6.212-16.193-4.813-23.927C517.553,91.814,516.59,91.545,516.475,92.179z"/></g></g><g><path d="M477.894,104.29c-0.247,0-0.462-0.183-0.495-0.434l-0.088-0.638c-0.174-1.232-0.353-2.506-0.189-3.749 c0.364-2.271,1.428-4.5,3.076-6.458c0.696-0.872,1.488-1.786,2.505-2.495c0.225-0.156,0.537-0.103,0.696,0.124 c0.158,0.227,0.103,0.538-0.124,0.696c-0.912,0.636-1.646,1.486-2.304,2.309c-1.54,1.83-2.526,3.89-2.859,5.968 c-0.146,1.094,0.025,2.3,0.189,3.465l0.09,0.647c0.036,0.273-0.157,0.525-0.431,0.561 C477.938,104.289,477.916,104.29,477.894,104.29z"/></g><g><path d="M529.449,118.064c-0.025,0-0.051-0.002-0.077-0.006c-0.272-0.045-0.459-0.285-0.414-0.558 c0.095-0.573,0.179-1.082,0.179-1.584c0-0.501-0.084-0.922-0.173-1.368c-0.17-0.763-0.361-1.623-0.636-2.456 c-0.376-1.22-0.918-2.465-1.529-3.514c-0.14-0.239-0.059-0.545,0.18-0.684c0.237-0.139,0.544-0.059,0.684,0.18 c0.649,1.113,1.224,2.433,1.618,3.714c0.288,0.87,0.485,1.756,0.659,2.538c0.1,0.499,0.197,0.989,0.197,1.589 c0,0.584-0.095,1.157-0.186,1.712C529.909,117.876,529.692,118.064,529.449,118.064z"/></g><g><path style="fill:#f2ac30" d="M390.057,171.913c5.832,1.666,18.605-1.388,24.992-10.273 c4.443,9.996,19.438,43.595,20.547,45.261c1.111,1.667,14.717-8.331,30.268-20.827c15.549-12.494,24.99-16.104,34.432-14.992 c9.441,1.109,13.885-0.278,13.051-5.554c-0.834-5.277-1.943-9.72-1.943-9.72s10.828,4.442,27.768-5.554 c3.609,10.553,3.332,12.496,4.721,14.161c1.389,1.667,13.885-3.608,25.824-1.941c11.938,1.664,36.561,27.973,48.221,38.874 c14.254,13.328,30.775,27.767,22.77,43.874c-5.59,11.24-25.729,3.33-25.729,3.33s-1.668-4.998-10.553-13.883 c-8.887-8.886-23.881-24.16-23.881-24.16s17.586,52.946,20.918,60.999c-17.771,14.994-69.869,22.592-83.99,16.172 c-4.621-13.865-20.231-61.896-27.172-74.948c-21.104,14.717-35.82,28.879-48.314,33.321 c-12.496,4.443-23.603,8.885-34.711-21.381C400.914,207.34,390.057,171.913,390.057,171.913z"/><g><path style="fill:#f2ac30" d="M389.924,172.395c9.123,2.389,20.205-3.312,25.557-10.503c-0.288,0-0.575,0-0.863,0 c6.516,14.656,12.838,29.443,19.832,43.878c0.628,1.297,0.986,2.13,2.587,1.605c3.694-1.21,7.124-4.128,10.229-6.354 c11.502-8.246,21.899-18.431,34.383-25.203c4.019-2.18,8.367-3.817,12.933-4.305c4.507-0.482,8.965,0.742,13.479,0.292 c2.721-0.271,5.419-1.428,5.84-4.397c0.29-2.056-0.46-4.371-0.844-6.363c-0.347-1.798-0.732-3.593-1.171-5.372 c-0.205,0.205-0.41,0.41-0.615,0.615c2.358,0.947,5.169,1.042,7.664,0.99c7.275-0.15,14.277-2.994,20.488-6.594 c-0.244-0.1-0.489-0.199-0.734-0.299c1.413,4.163,2.377,8.499,3.865,12.626c0.804,2.228,2.068,2.371,4.3,2.067 c6.215-0.846,12.154-2.46,18.49-2.431c4.846,0.022,8.621,1.441,12.688,3.947c9.104,5.611,16.995,13.344,24.681,20.705 c7.831,7.501,15.718,14.966,23.482,22.535c8.975,8.75,20.253,20.995,14.409,34.445c-3.79,8.721-15.422,6.861-22.75,4.705 c-0.859-0.252-1.711-0.533-2.551-0.844c-0.474-0.176,0.222,0.445,0.124,0.184c-0.108-0.291-0.239-0.572-0.371-0.854 c-1.716-3.65-4.468-6.873-7.132-9.854c-7.378-8.258-15.613-15.86-23.381-23.756c-1.216-1.235-2.431-2.471-3.645-3.707 c-0.341-0.347-0.996,0.003-0.836,0.486c3.951,11.895,7.94,23.777,11.978,35.643c2.426,7.129,4.847,14.262,7.418,21.34 c0.362,0.998,0.73,1.994,1.112,2.984c0.152,0.395,0.333,0.715,0.208,0.82c-0.895,0.742-1.849,1.412-2.813,2.061 c-3.757,2.523-7.922,4.436-12.115,6.105c-9.634,3.834-19.858,6.244-30.072,7.914c-9.357,1.529-19.01,2.451-28.49,1.736 c-1.762-0.133-3.515-0.361-5.248-0.701c-0.627-0.123-3.949-0.594-4.177-1.277c-1.054-3.16-2.096-6.326-3.145-9.488 c-3.103-9.357-6.242-18.701-9.478-28.012c-2.55-7.334-5.158-14.649-7.933-21.902c-1.985-5.191-3.978-10.461-6.574-15.386 c-0.119-0.227-0.468-0.331-0.684-0.179c-11.524,8.063-22.309,17.115-33.808,25.203c-6.975,4.907-14.515,8.87-22.89,10.729 c-8.14,1.807-14.143-2.25-18.563-8.907c-6.227-9.378-9.304-20.974-12.814-31.58c-3.953-11.941-7.747-23.938-11.434-35.965 c-0.188-0.615-1.154-0.353-0.964,0.266c4.785,15.611,9.691,31.201,15.036,46.63c3.28,9.469,6.684,20.461,14.492,27.267 c4.834,4.213,10.786,4.35,16.692,2.705c8.132-2.268,15.221-6.213,22.08-11.082c11.088-7.869,21.529-16.605,32.675-24.403 c-0.228-0.06-0.456-0.12-0.684-0.179c3.721,7.061,6.375,14.745,9.121,22.22c3.62,9.851,7.025,19.78,10.38,29.724 c2.539,7.525,5.02,15.07,7.527,22.605c0.601,1.805,5.643,2.145,7.222,2.371c3.858,0.549,7.778,0.619,11.669,0.539 c12.267-0.246,24.597-2.283,36.446-5.393c10.256-2.691,21.303-6.307,29.582-13.189c0.122-0.102,0.189-0.338,0.129-0.486 c-4.484-10.92-7.932-22.344-11.709-33.52c-3.093-9.151-6.164-18.311-9.209-27.479c-0.279,0.162-0.558,0.324-0.836,0.486 c5.658,5.764,11.328,11.516,17.012,17.254c4.24,4.28,8.665,8.425,12.485,13.092c1.794,2.193,3.831,4.748,4.805,7.465 c0.358,1.002,3.654,1.445,4.476,1.666c3.655,0.99,7.475,1.57,11.266,1.369c3.699-0.197,7.329-1.469,9.732-4.389 c3.01-3.658,3.71-9.145,3.1-13.679c-0.746-5.54-3.964-10.531-7.309-14.855c-4.228-5.464-9.355-10.214-14.388-14.919 c-7.54-7.05-14.805-14.384-22.344-21.435c-7.167-6.703-14.711-13.822-23.475-18.408c-9.422-4.93-19.843-0.921-29.664,0.177 c-2.092,0.234-2.364-1.285-2.854-3.001c-1.065-3.718-2.136-7.416-3.379-11.08c-0.104-0.304-0.442-0.468-0.734-0.299 c-6.128,3.551-12.84,6.192-19.984,6.457c-2.408,0.089-5.126-0.041-7.398-0.954c-0.373-0.15-0.697,0.28-0.615,0.615 c0.44,1.779,0.814,3.575,1.172,5.372c0.492,2.478,1.848,6.08-0.27,8.141c-1.652,1.607-4.773,1.497-6.875,1.477 c-2.668-0.025-5.299-0.528-7.967-0.539c-10.332-0.043-19.698,6.357-27.607,12.309c-10.19,7.671-19.762,16.826-31.02,22.974 c-0.396,0.217-2.16,1.282-2.447,0.769c-0.424-0.757-0.78-1.557-1.151-2.34c-1.507-3.173-2.956-6.375-4.409-9.573 c-5.011-11.023-9.947-22.079-14.866-33.143c-0.169-0.381-0.667-0.264-0.863,0c-5.075,6.819-15.772,12.311-24.428,10.044 C389.565,171.267,389.301,172.231,389.924,172.395z"/></g></g><g><path d="M388.076,160.211c-1.488,0-2.692-0.446-3.504-1.337c-1.261-1.383-1.295-3.608-0.089-5.807 c2.53-4.614,6.453-6.115,10.315-7.049c1.048-0.253,1.767-0.796,2.197-1.66c0.959-1.925,0.402-5.48-1.566-10.011 c-2.479-5.707-4.622-10.636-6.67-11.274c-0.897-0.281-1.517-0.266-1.954,0.047c-0.758,0.542-1.178,2.107-1.247,4.655 c-0.145,5.409-1.86,6.644-3.76,7.521c-0.971,0.448-1.969,0.455-2.885,0.016c-1.372-0.657-2.451-2.246-3.215-4.729 c-0.807,1.221-1.45,2.471-2.03,3.599c-1.282,2.492-2.401,4.667-4.592,5.117c0.156,2.487-0.628,4.341-2.141,5.008 c-1.251,0.551-2.697,0.137-3.772-1.08c-0.183-0.207-0.163-0.523,0.044-0.706c0.208-0.182,0.523-0.163,0.706,0.044 c0.777,0.881,1.781,1.197,2.618,0.828c0.919-0.405,1.798-1.792,1.509-4.468c-0.015-0.134,0.026-0.268,0.112-0.372 c0.086-0.104,0.211-0.169,0.345-0.18c1.972-0.159,2.991-2.14,4.281-4.648c0.735-1.428,1.567-3.047,2.716-4.594 c0.115-0.155,0.307-0.233,0.499-0.192c0.19,0.038,0.34,0.182,0.387,0.369c0.864,3.459,2.089,4.685,2.965,5.104 c0.804,0.385,1.55,0.202,2.033-0.022c1.722-0.795,3.05-1.788,3.179-6.639c0.081-2.959,0.61-4.688,1.666-5.442 c0.937-0.669,2.066-0.428,2.833-0.188c2.37,0.738,4.222,4.77,7.29,11.831c1.477,3.4,2.944,8.043,1.543,10.855 c-0.563,1.129-1.523,1.864-2.857,2.186c-3.639,0.88-7.33,2.284-9.673,6.558c-0.994,1.812-1.013,3.594-0.049,4.652 c1.243,1.366,3.932,1.337,7.186-0.074c7.068-3.068,9.297-8.022,9.318-8.072c0.11-0.253,0.403-0.37,0.658-0.259 c0.253,0.11,0.369,0.403,0.26,0.656c-0.094,0.217-2.385,5.356-9.838,8.591C391.101,159.822,389.464,160.211,388.076,160.211z"/></g><g><path d="M399.076,187.007c-1.738,0-3.318-0.296-4.766-0.888c-0.256-0.104-0.378-0.396-0.273-0.652 c0.105-0.256,0.397-0.379,0.652-0.273c2.547,1.042,5.576,1.081,9.265,0.12c3.099-0.777,7.069-2.049,10.343-5.024 c0.189-0.191,0.413-0.398,0.645-0.612c0.691-0.64,1.406-1.302,1.894-2.177c0.133-0.242,0.438-0.328,0.68-0.194 c0.241,0.134,0.328,0.439,0.193,0.68c-0.564,1.015-1.373,1.764-2.088,2.425c-0.221,0.204-0.435,0.403-0.634,0.602 c-3.455,3.141-7.577,4.465-10.784,5.269C402.351,186.766,400.648,187.007,399.076,187.007z"/></g><g><path d="M399.408,186.667c-0.204,0-0.396-0.126-0.47-0.328c-0.308-0.841-0.598-1.697-0.892-2.563 c-0.414-1.218-0.841-2.478-1.327-3.721c-0.518-1.29-1.105-2.756-1.583-4.189c-0.124-0.374-0.281-0.736-0.438-1.096 c-0.31-0.715-0.63-1.455-0.697-2.259c-0.024-0.275,0.181-0.517,0.456-0.54c0.265-0.032,0.518,0.18,0.54,0.456 c0.055,0.641,0.329,1.275,0.619,1.945c0.167,0.386,0.335,0.776,0.469,1.177c0.468,1.404,1.05,2.855,1.564,4.137 c0.496,1.268,0.927,2.539,1.344,3.768c0.292,0.858,0.58,1.708,0.885,2.54c0.095,0.26-0.039,0.547-0.298,0.642 C399.523,186.657,399.465,186.667,399.408,186.667z"/></g><g><path d="M404.498,186.018c-0.166,0-0.329-0.083-0.424-0.235c-0.35-0.56-0.598-1.249-0.837-1.915 c-0.103-0.284-0.205-0.57-0.316-0.848c-0.195-0.584-0.403-1.139-0.611-1.694c-0.209-0.555-0.417-1.11-0.603-1.666 c-0.397-1.117-0.906-2.345-1.552-3.744c-0.288-0.673-0.525-1.36-0.754-2.025c-0.226-0.655-0.459-1.333-0.732-1.966 c-0.109-0.254,0.008-0.548,0.262-0.657c0.252-0.107,0.548,0.008,0.656,0.262c0.288,0.668,0.527,1.363,0.759,2.036 c0.224,0.647,0.454,1.317,0.723,1.944c0.652,1.414,1.172,2.669,1.583,3.824c0.186,0.553,0.39,1.097,0.593,1.641 c0.213,0.567,0.426,1.134,0.614,1.701c0.105,0.26,0.212,0.558,0.318,0.853c0.232,0.645,0.451,1.255,0.744,1.723 c0.147,0.234,0.075,0.542-0.159,0.689C404.681,185.994,404.589,186.018,404.498,186.018z"/></g><g><path d="M410.791,183.984c-0.225,0-0.428-0.151-0.485-0.378c-0.111-0.444-0.34-0.984-0.562-1.506 c-0.126-0.295-0.248-0.583-0.347-0.848c-0.23-0.55-0.442-1.117-0.655-1.684c-0.204-0.544-0.408-1.088-0.634-1.633l-0.054-0.129 c-1.073-2.594-2.184-5.275-3.366-7.911c-0.113-0.252-0.001-0.548,0.251-0.661c0.251-0.114,0.548-0.001,0.661,0.251 c1.189,2.648,2.302,5.337,3.378,7.938l0.054,0.128c0.23,0.555,0.439,1.109,0.646,1.665c0.208,0.556,0.416,1.111,0.648,1.667 c0.101,0.269,0.218,0.543,0.337,0.824c0.236,0.557,0.481,1.133,0.612,1.654c0.066,0.268-0.096,0.54-0.364,0.606 C410.872,183.979,410.831,183.984,410.791,183.984z"/></g><g><path d="M413.846,177.781c-0.183,0-0.359-0.101-0.446-0.275c-0.149-0.297-0.274-0.643-0.397-0.988 c-0.108-0.303-0.215-0.605-0.344-0.865l-1.417-3.438c-0.397-0.854-0.808-1.736-1.11-2.642c-0.066-0.152-0.173-0.359-0.284-0.575 c-0.275-0.536-0.587-1.144-0.663-1.742c-0.034-0.274,0.159-0.524,0.434-0.559c0.27-0.032,0.523,0.159,0.559,0.433 c0.054,0.424,0.323,0.948,0.561,1.411c0.123,0.239,0.24,0.468,0.329,0.678c0.299,0.89,0.697,1.746,1.082,2.575l0.302,0.653 l1.12,2.797c0.13,0.256,0.253,0.597,0.374,0.938c0.109,0.306,0.217,0.613,0.349,0.875c0.124,0.247,0.025,0.547-0.222,0.671 C413.998,177.764,413.922,177.781,413.846,177.781z"/></g><g><path d="M518.897,170.469c-0.254,0-0.471-0.192-0.496-0.451c-0.094-0.936-0.384-2.039-0.624-2.759 c-0.102-0.429-0.181-0.813-0.26-1.194c-0.169-0.818-0.329-1.59-0.574-2.322c-0.453-1.178-0.826-2.389-1.187-3.56 c-0.164-0.593-0.281-1.107-0.398-1.621c-0.114-0.503-0.229-1.007-0.366-1.51c-0.072-0.267,0.084-0.542,0.351-0.614 c0.268-0.074,0.542,0.085,0.614,0.351c0.141,0.517,0.259,1.034,0.377,1.552c0.113,0.5,0.227,1.001,0.363,1.501 c0.371,1.202,0.738,2.396,1.188,3.564c0.271,0.809,0.444,1.646,0.612,2.457c0.077,0.373,0.154,0.749,0.242,1.126 c0.32,0.954,0.571,2.067,0.656,2.932c0.027,0.275-0.173,0.52-0.447,0.547C518.931,170.468,518.914,170.469,518.897,170.469z"/></g><g><path d="M523.898,171.395c-0.276,0-0.5-0.224-0.5-0.5c0-0.267-0.087-0.559-0.171-0.84c-0.034-0.117-0.067-0.229-0.094-0.334 c-0.102-0.614-0.301-1.272-0.45-1.722c-0.311-1.429-0.709-2.782-1.023-3.807c-0.193-0.724-0.358-1.431-0.524-2.137 c-0.158-0.682-0.317-1.364-0.499-2.046c-0.069-0.342-0.165-0.664-0.263-0.993c-0.197-0.67-0.402-1.364-0.402-2.095 c0-0.276,0.224-0.5,0.5-0.5c0.276,0,0.5,0.224,0.5,0.5c0,0.587,0.184,1.21,0.361,1.812c0.106,0.359,0.209,0.71,0.277,1.05 c0.177,0.662,0.338,1.354,0.5,2.045c0.162,0.696,0.324,1.393,0.511,2.089c0.314,1.026,0.721,2.405,1.025,3.819 c0.146,0.432,0.359,1.144,0.465,1.783c0.015,0.052,0.044,0.149,0.074,0.251c0.095,0.318,0.212,0.713,0.212,1.126 C524.398,171.171,524.175,171.395,523.898,171.395z"/></g><g><path d="M529.543,170.285c-0.21,0-0.405-0.133-0.475-0.342c-0.047-0.143-0.095-0.308-0.142-0.475 c-0.045-0.157-0.09-0.315-0.136-0.451c-0.192-0.479-0.292-0.877-0.387-1.356c-0.121-0.729-0.327-1.47-0.525-2.186 c-0.104-0.374-0.208-0.748-0.302-1.122l-0.343-1.279c-0.637-2.372-1.238-4.613-1.788-6.965 c-0.063-0.269,0.104-0.538,0.374-0.601c0.273-0.062,0.537,0.105,0.601,0.373c0.546,2.336,1.144,4.57,1.779,6.934l0.346,1.289 c0.093,0.373,0.194,0.739,0.296,1.105c0.206,0.741,0.419,1.508,0.546,2.274c0.083,0.418,0.167,0.754,0.342,1.191 c0.06,0.176,0.109,0.349,0.158,0.521c0.044,0.152,0.087,0.304,0.13,0.434c0.087,0.262-0.055,0.545-0.317,0.632 C529.648,170.276,529.595,170.285,529.543,170.285z"/></g><g><path d="M535.004,168.063c-0.212,0-0.409-0.136-0.477-0.349c-0.678-2.131-1.249-4.252-1.765-6.226l-0.262-0.858 c-0.286-0.944-0.581-1.92-0.931-2.895c-0.158-0.438-0.285-0.909-0.412-1.386c-0.166-0.62-0.337-1.261-0.589-1.817 c-0.113-0.251-0.002-0.548,0.25-0.662c0.249-0.114,0.547-0.002,0.662,0.25c0.285,0.631,0.467,1.313,0.643,1.971 c0.12,0.449,0.237,0.892,0.387,1.305c0.359,1,0.658,1.988,0.947,2.944l0.266,0.874c0.52,1.982,1.086,4.087,1.757,6.197 c0.084,0.263-0.062,0.544-0.325,0.628C535.105,168.056,535.054,168.063,535.004,168.063z"/></g><g><path d="M521.72,173.03c-0.685,0-1.296-0.054-1.892-0.163c-0.864-0.129-1.702-0.361-2.512-0.586 c-0.956-0.265-1.858-0.515-2.817-0.611c-0.274-0.027-0.476-0.272-0.447-0.547c0.027-0.275,0.278-0.474,0.547-0.448 c1.044,0.104,2.03,0.378,2.984,0.643c0.781,0.217,1.589,0.441,2.409,0.564c0.894,0.164,1.825,0.19,3.03,0.09 c0.46-0.044,0.938-0.031,1.401-0.02c0.594,0.014,1.207,0.03,1.798-0.069c2.168-0.362,4.3-1.289,6.362-2.186 c1.691-0.762,3.499-1.604,5.299-2.742c1.01-0.642,2.03-1.291,3.028-2.018c0.524-0.438,1.099-1.014,1.607-1.522 c0.195-0.196,0.512-0.195,0.707-0.001c0.195,0.195,0.195,0.512,0,0.707c-0.522,0.523-1.113,1.116-1.699,1.605 c-1.049,0.765-2.083,1.423-3.084,2.059c-1.879,1.188-3.723,2.047-5.453,2.826c-2.123,0.923-4.313,1.876-6.602,2.258 c-0.684,0.115-1.346,0.098-1.987,0.083c-0.453-0.012-0.883-0.022-1.289,0.016C522.608,173.009,522.149,173.03,521.72,173.03z"/></g><g><path d="M490.853,215.036c-0.184,0-0.359-0.101-0.447-0.276c-0.219-0.438-0.4-0.909-0.575-1.364 c-0.175-0.452-0.339-0.879-0.536-1.275c-0.288-0.853-0.697-1.672-1.093-2.464c-0.206-0.46-0.417-0.851-0.628-1.242 c-0.441-0.82-0.898-1.669-1.098-2.666c-0.054-0.271,0.121-0.534,0.392-0.588c0.265-0.056,0.533,0.121,0.588,0.392 c0.17,0.851,0.572,1.598,0.998,2.388c0.223,0.414,0.444,0.827,0.635,1.256c0.419,0.837,0.844,1.688,1.127,2.543 c0.191,0.372,0.372,0.842,0.547,1.296c0.175,0.453,0.34,0.881,0.537,1.276c0.123,0.247,0.023,0.547-0.224,0.671 C491.005,215.019,490.929,215.036,490.853,215.036z"/></g><g><path d="M577.019,208.043c-0.087,0-0.175-0.02-0.258-0.063c-0.994-0.512-1.799-1.289-2.577-2.039 c-0.297-0.287-0.595-0.575-0.905-0.85c-0.866-0.744-1.78-1.388-2.954-2.083l-3.865-2.487c-0.271-0.174-0.353-0.541-0.184-0.82 c0.17-0.279,0.527-0.362,0.795-0.19l3.847,2.476c1.216,0.72,2.181,1.4,3.106,2.196c0.329,0.292,0.641,0.591,0.949,0.889 c0.75,0.725,1.46,1.409,2.304,1.844c0.285,0.146,0.4,0.503,0.259,0.797C577.434,207.922,577.23,208.043,577.019,208.043z"/></g><g><path d="M601.994,272.653c-0.203,0-0.393-0.124-0.469-0.325l-6.457-17.355c-0.096-0.259,0.035-0.547,0.294-0.644 c0.261-0.097,0.547,0.035,0.644,0.294l6.457,17.355c0.096,0.259-0.035,0.547-0.294,0.644 C602.111,272.644,602.052,272.653,601.994,272.653z"/></g><g><path d="M538.776,299.676c-4.69,0-9.349-0.234-13.913-0.715c-0.274-0.028-0.474-0.274-0.444-0.55s0.262-0.477,0.55-0.444 c26.986,2.84,57.308-2.992,77.256-14.858c0.234-0.142,0.542-0.065,0.686,0.174c0.142,0.237,0.063,0.544-0.174,0.686 C585.993,293.928,562.017,299.676,538.776,299.676z"/></g><g><path d="M602.423,316.039c-1.608,0-3.219-0.34-4.826-1.019c-7.395-3.129-13.265-12.97-15.59-20.789 c-0.078-0.265,0.072-0.543,0.337-0.622c0.268-0.076,0.544,0.073,0.622,0.337c2.331,7.844,8.24,17.284,15.021,20.152 c3.279,1.387,6.581,1.232,9.815-0.459c0.245-0.126,0.546-0.033,0.675,0.212c0.128,0.244,0.033,0.547-0.212,0.675 C606.335,315.534,604.382,316.039,602.423,316.039z"/></g><g><path d="M611.364,328.743c-0.255,0-0.473-0.194-0.497-0.453c-1.912-20.214-12.34-41.264-12.445-41.474 c-0.123-0.247-0.023-0.547,0.224-0.671c0.248-0.124,0.547-0.023,0.671,0.224c0.105,0.212,10.617,21.423,12.547,41.827 c0.025,0.274-0.176,0.519-0.451,0.545C611.396,328.742,611.381,328.743,611.364,328.743z"/></g><g><path d="M368.608,139.314c-0.934,0-1.856-0.43-2.503-1.205c-0.706-0.985-1.504-2.616-1.504-4.069 c-0.151-2.69,1.238-5.629,2.431-7.615c0.142-0.236,0.448-0.314,0.686-0.171c0.237,0.142,0.313,0.449,0.171,0.686 c-1.12,1.866-2.427,4.607-2.289,7.072c0.001,1.166,0.651,2.585,1.296,3.486c0.571,0.682,1.484,0.981,2.303,0.728 c0.265-0.082,0.544,0.067,0.625,0.331c0.081,0.264-0.067,0.544-0.332,0.624C369.203,139.27,368.905,139.314,368.608,139.314z"/></g><g><path d="M375.922,130.052c-0.252,0-0.469-0.189-0.497-0.446c-0.198-1.81-0.178-3.822-0.16-5.768 c0.005-0.536,0.01-1.06,0.01-1.563c0-0.276,0.224-0.5,0.5-0.5c0.277,0,0.5,0.224,0.5,0.5c0,0.506-0.004,1.033-0.01,1.572 c-0.018,1.917-0.037,3.899,0.154,5.65c0.029,0.275-0.168,0.521-0.443,0.551C375.958,130.051,375.94,130.052,375.922,130.052z"/></g><g><path d="M566.647,330.234c-2.717,0-5.345-0.776-5.498-0.823c-0.16-0.048-0.285-0.172-0.334-0.331l-12.055-38.916 c-0.082-0.264,0.065-0.543,0.33-0.625c0.263-0.085,0.544,0.066,0.625,0.33l11.974,38.655c0.997,0.266,4.724,1.157,7.375,0.425 c-2.453-8.507-8.196-30.646-8.256-30.873c-0.069-0.268,0.092-0.541,0.358-0.61c0.277-0.067,0.541,0.092,0.61,0.358 c0.06,0.232,6.018,23.196,8.383,31.313c0.073,0.252-0.062,0.518-0.308,0.608C568.877,330.105,567.755,330.234,566.647,330.234z"/></g></g><g><path style="fill:#ffd4d4" d="M226.165,243.813c-1.667,0.926-5.501,2.483-7.668,2.816c-0.659,0.102-3.068-18.366-3.068-18.366 c11.176-4.097,16.66-7.962,19.621-16.477c2.962-8.515-5.206-9.993-5.669-18.579c-0.369-6.863,1.042-28.996-24.503-25.664 c-25.548,3.333-46.096,39.43-35.729,50.354c10.368,10.921,19.809,12.401,19.623,15.18c-0.186,2.775-9.996,17.956-10.551,18.695 c-0.557,0.741,7.034,15.734,14.81,18.883C200.804,273.801,243.937,272.32,226.165,243.813z"/><g><path style="fill:#f2ac30" d="M111.578,441.795c-1.111-16.104-1.111-68.586,29.711-91.355c2.499-1.943,4.536-7.774,4.536-7.774 c13.79,3.609,49.149,13.051,64.791,12.219c-1.851,5.273-7.034,13.328-7.034,13.328l4.904,73.304l-40.264,0.834l-8.051-12.773 l1.109,12.218H111.578z"/><g><path style="fill:#f2ac30" d="M112.078,441.795c-1.1-16.227,0.192-32.888,4.152-48.663 c2.541-10.122,6.453-19.975,12.335-28.632c2.983-4.391,6.566-8.352,10.619-11.775c1.77-1.495,3.363-2.594,4.618-4.569 c1.021-1.605,1.783-3.41,2.445-5.191c0.02-0.055,0.04-0.109,0.059-0.165c-0.204,0.116-0.41,0.233-0.615,0.35 c10.527,2.756,21.065,5.465,31.701,7.775c10.74,2.332,22.157,4.978,33.223,4.462c-0.161-0.211-0.321-0.422-0.482-0.633 c-1.672,4.572-4.236,8.855-6.827,12.962c-0.398,0.632-0.16,1.477-0.112,2.191c0.35,5.237,0.701,10.475,1.051,15.712 c1.025,15.33,2.051,30.66,3.077,45.99c0.221,3.303,0.442,6.607,0.663,9.909c0.167-0.167,0.333-0.333,0.5-0.5 c-10.282,0.213-20.563,0.426-30.845,0.639c-2.337,0.049-4.674,0.097-7.011,0.146c-0.634,0.013-1.269,0.026-1.903,0.039 c-0.855,0.018-0.001,0.374-0.245-0.015c-2.626-4.167-5.252-8.334-7.879-12.5c-0.246-0.391-0.979-0.271-0.932,0.252 c0.37,4.072,0.74,8.146,1.109,12.218c0.167-0.167,0.333-0.333,0.5-0.5c-16.568,0-33.135,0-49.703,0c-0.645,0-0.645,1,0,1 c16.568,0,33.135,0,49.703,0c0.254,0,0.525-0.228,0.5-0.5c-0.37-4.072-0.74-8.145-1.109-12.218 c-0.311,0.084-0.621,0.168-0.932,0.252c2.626,4.167,5.253,8.334,7.878,12.501c0.455,0.721,1.115,0.51,1.898,0.494 c2.288-0.048,4.575-0.095,6.863-0.143c10.702-0.222,21.404-0.443,32.106-0.665c0.258-0.005,0.519-0.224,0.5-0.5 c-1.593-23.815-3.186-47.629-4.78-71.443c-0.034-0.502-0.067-1.004-0.101-1.506c-0.04-0.587-0.142-0.018,0.327-0.765 c2.541-4.055,5.018-8.279,6.666-12.785c0.11-0.3-0.174-0.648-0.482-0.633c-10.995,0.514-22.279-2.126-32.957-4.426 c-10.639-2.292-21.175-5.019-31.701-7.775c-0.278-0.072-0.523,0.091-0.615,0.35c-0.565,1.591-1.283,3.125-2.099,4.602 c-1.368,2.473-3.628,3.889-5.712,5.69c-3.764,3.256-7,7.088-9.83,11.17c-5.77,8.324-9.527,17.948-12.129,27.687 c-4.229,15.823-5.516,32.675-4.566,49.006c0.021,0.369,0.046,0.738,0.071,1.107 C111.121,442.435,112.121,442.439,112.078,441.795z"/></g></g><g><path d="M169.707,361.862c-0.028,0-0.057-0.002-0.085-0.007c-11.371-1.958-21.868-6.373-26.742-11.247 c-0.195-0.195-0.195-0.512,0-0.707s0.512-0.195,0.707,0c4.738,4.737,15.024,9.043,26.205,10.968 c0.272,0.047,0.455,0.306,0.408,0.578C170.157,361.69,169.946,361.862,169.707,361.862z"/></g><g><path d="M121.203,442.019c-0.266,0-0.487-0.209-0.499-0.478c-0.473-10.61-1.401-64.726,26.838-88.154 c0.212-0.177,0.528-0.146,0.704,0.065c0.176,0.213,0.147,0.527-0.065,0.704c-27.875,23.127-26.947,76.813-26.478,87.34 c0.012,0.276-0.201,0.51-0.477,0.522C121.218,442.019,121.211,442.019,121.203,442.019z"/></g><g><path style="fill:#32015c" d="M218.54,246.254c8.25-2,11.79-4.755,17.252-5.311c1.853-5.926-4.349-16.105-8.699-17.957 c-4.443,2.963-9.164,4.813-11.848,5.276C216.54,237.004,218.54,246.254,218.54,246.254z"/><g><path style="fill:#32015c" d="M218.672,246.736c5.752-1.443,11.21-4.597,17.119-5.293c0.224-0.026,0.419-0.133,0.482-0.367 c1.438-5.324-1.723-11.232-4.986-15.242c-0.501-0.616-3.373-3.978-4.448-3.279c-3.57,2.32-7.513,4.405-11.728,5.226 c-0.29,0.056-0.387,0.363-0.349,0.615c0.907,6.027,2.011,12.032,3.295,17.991c0.136,0.631,1.1,0.363,0.964-0.266 c-1.284-5.959-2.387-11.964-3.295-17.991c-0.116,0.205-0.232,0.41-0.349,0.615c1.727-0.336,3.405-0.902,5.02-1.597 c1.021-0.44,2.021-0.91,3.013-1.411c0.518-0.262,3.376-2.343,3.795-2.145c3.618,1.711,6.08,6.455,7.425,9.994 c0.704,1.85,1.074,3.817,0.961,5.795c-0.102,1.778-3.005,1.619-4.456,2.077c-4.291,1.355-8.345,3.214-12.73,4.314 C217.781,245.929,218.047,246.893,218.672,246.736z"/></g></g><g><path d="M209.544,229.272c-5.28,0-10.718-1.305-15.316-3.763c-0.243-0.13-0.335-0.433-0.205-0.677 c0.13-0.243,0.432-0.335,0.677-0.205c6.084,3.252,13.688,4.421,20.338,3.131c0.271-0.05,0.533,0.124,0.586,0.395 c0.053,0.271-0.125,0.533-0.396,0.586C213.388,229.097,211.476,229.272,209.544,229.272z"/></g><g><path style="fill:#32015c" d="M183.217,208.269c2.456,7.734,7.463,9.788,6.179-1.767 c21.798-13.051,22.561-30.998,19.507-37.246c13.467,1.806,22.492,7.914,20.409,23.186c14.3-3.747,13.329-27.906,0.971-32.348 c-0.276-17.494-19.352-21.917-38.18-11.247c-8.438,4.782-11.438,10.615-22.938,15.115c-13.489,5.278-18.167,22.5-18.167,37 c0,22.062-0.129,32.855-17.483,46.32c-17.354,13.47-33.643,30.565-23.602,51.788c6.107,12.91,19.436,12.079,19.436,12.079 c-3.748,17.353,6.941,27.627,17.216,26.935c0,0,2.915-36.098,6.664-51.926c3.748-15.828,11.105-22.354,23.464-28.601 c12.356-6.247,15.523-8.45,14.3-20.409c-0.955-9.334-2.638-16.244-2.638-16.244c-10.969,4.582-16.414-1.774-17.633-6.387 C168.779,207.159,178.914,201.467,183.217,208.269z"/><g><path style="fill:#32015c" d="M182.735,208.401c0.575,1.73,3.837,9.543,6.556,5.751c0.52-0.725,0.617-1.746,0.729-2.6 c0.111-0.847,0.085-1.713,0.066-2.564c-0.043-1.948,0.128-2.377,1.792-3.454c3.678-2.382,7.049-5.24,9.988-8.488 c6.221-6.874,11.824-18.797,7.468-28.042c-0.188,0.245-0.376,0.49-0.564,0.734c5.521,0.773,11.221,2.233,15.453,6.065 c4.679,4.237,5.334,10.718,4.589,16.638c-0.042,0.328,0.35,0.562,0.633,0.482c7.799-2.201,11.15-10.063,10.815-17.642 c-0.169-3.802-1.362-7.597-3.528-10.73c-0.92-1.332-2.079-2.456-3.377-3.413c-0.734-0.542-1.553-0.953-2.388-1.311 c-0.46-0.197-0.391-2.464-0.481-3.068c-1.412-9.474-9.99-14.113-18.891-14.161c-11.604-0.063-21.303,6.319-29.917,13.358 c-2.304,1.883-4.72,3.577-7.313,5.037c-2.883,1.623-6.072,2.572-8.915,4.263c-4.311,2.564-7.472,6.692-9.744,11.086 c-5.275,10.199-5.083,21.502-5.25,32.65c-0.148,9.883-1.101,19.646-7.062,27.878c-3.468,4.79-8.159,8.374-12.73,12.032 c-5.109,4.088-9.976,8.508-14.224,13.495c-4.252,4.992-7.719,10.722-9.318,17.122c-1.678,6.718-0.492,13.594,2.361,19.804 c3.412,7.43,11.563,12.795,19.868,12.327c-0.161-0.211-0.321-0.422-0.482-0.633c-1.447,7.093-0.968,14.606,3.4,20.62 c3.291,4.53,8.701,7.229,14.298,6.947c0.29-0.015,0.477-0.218,0.5-0.5c1.297-16.024,2.78-32.209,5.835-48.003 c2.084-10.775,6.23-20.373,15.328-26.956c4.466-3.23,9.541-5.412,14.333-8.088c3.213-1.794,6.455-3.943,8.055-7.382 c2.005-4.309,1.014-9.726,0.448-14.219c-0.536-4.243-1.222-8.504-2.226-12.665c-0.059-0.244-0.367-0.448-0.615-0.349 c-6.275,2.494-13.773,2.059-16.661-4.948c-2.836-6.881,6.65-13.605,11.225-6.953c0.363,0.527,1.23,0.028,0.863-0.505 c-4.352-6.329-14.691-2.104-13.618,5.488c0.449,3.174,2.339,5.901,4.955,7.699c4.026,2.767,9.266,1.867,13.502,0.183 c-0.205-0.116-0.41-0.232-0.615-0.349c1.054,4.369,1.741,8.843,2.303,13.297c0.585,4.633,1.418,10.056-1.198,14.243 c-2.493,3.989-7.83,6.153-11.834,8.192c-4.508,2.296-8.887,4.776-12.725,8.103c-7.678,6.657-10.845,16.288-12.681,25.977 c-1.871,9.872-2.979,19.902-4.034,29.888c-0.61,5.775-1.17,11.559-1.639,17.347c0.167-0.167,0.333-0.333,0.5-0.5 c-5.215,0.262-9.885-2.126-13.17-6.11c-4.602-5.582-4.947-13.41-3.564-20.191c0.061-0.301-0.139-0.652-0.482-0.633 c-7.529,0.424-14.669-4.122-18.324-10.5c-7.124-12.434-2.813-26.061,5.635-36.463c4.117-5.069,9.042-9.46,14.088-13.577 c4.513-3.682,9.072-7.131,12.731-11.717c5.715-7.163,7.403-15.855,7.838-24.799c0.539-11.087-0.364-21.918,3.45-32.582 c1.792-5.012,4.652-9.659,8.721-13.13c2.269-1.936,4.918-3.042,7.632-4.191c2.846-1.204,5.518-2.771,8.039-4.548 c4.102-2.893,7.675-6.438,11.938-9.121c5.362-3.374,11.589-5.653,17.9-6.296c4.968-0.507,10.149,0.298,14.348,3.107 c4.428,2.961,6.284,8.132,6.437,13.261c0.007,0.24,0.151,0.399,0.367,0.482c12.645,4.833,12.273,27.646-0.971,31.384 c0.211,0.161,0.422,0.321,0.633,0.482c0.753-5.98,0.025-12.036-4.17-16.636c-4.153-4.555-10.744-6.211-16.606-7.031 c-0.442-0.062-0.764,0.311-0.564,0.734c2.233,4.74,1.255,10.703-0.396,15.443c-3.208,9.21-10.8,16.173-18.931,21.119 c-0.14,0.085-0.265,0.259-0.248,0.432c0.123,1.231,1.013,7.469-1.187,7.617c-2.048,0.137-3.576-4.679-4.01-5.983 C183.497,207.527,182.531,207.788,182.735,208.401z"/></g></g><path d="M207.168,200.148c-2.538,0.337-2.848,5.482-0.348,5.345C209.319,205.355,209.249,199.869,207.168,200.148z"/><g><path d="M206.891,201.202c-0.159,0-0.315-0.076-0.412-0.216c-0.157-0.227-0.1-0.538,0.128-0.695l0.107-0.074 c0.794-0.547,1.544-1.064,1.821-1.561c0.134-0.243,0.44-0.328,0.68-0.194c0.241,0.135,0.328,0.439,0.194,0.68 c-0.391,0.702-1.196,1.256-2.128,1.898l-0.107,0.074C207.087,201.173,206.988,201.202,206.891,201.202z"/></g><path d="M225.359,194.254c-2.522,0.431-2.644,5.583-0.151,5.354C227.701,199.379,227.432,193.9,225.359,194.254z"/><g><path d="M225.102,195.319c-0.152,0-0.303-0.069-0.401-0.201c-0.166-0.221-0.12-0.535,0.101-0.7l0.129-0.096 c0.764-0.57,1.485-1.108,1.741-1.61c0.126-0.247,0.425-0.344,0.672-0.219c0.246,0.125,0.344,0.426,0.219,0.672 c-0.361,0.711-1.137,1.289-2.035,1.958l-0.127,0.095C225.311,195.287,225.206,195.319,225.102,195.319z"/></g><g><path d="M220.426,212.588c-0.125,0-0.25-0.046-0.347-0.14c-0.199-0.191-0.205-0.508-0.014-0.707 c0.305-0.316,0.594-0.611,0.867-0.889c2.867-2.918,3.637-3.702,0.811-7.999l-0.145-0.221c-3.313-5.038-3.777-6.032-0.779-11.608 c0.131-0.243,0.435-0.334,0.677-0.204c0.243,0.131,0.334,0.434,0.204,0.677c-2.801,5.209-2.467,5.718,0.733,10.585l0.145,0.221 c3.269,4.971,2.039,6.224-0.934,9.25c-0.271,0.275-0.558,0.568-0.859,0.881C220.688,212.537,220.557,212.588,220.426,212.588z"/></g><g><path d="M200.086,195.914c-1.773,3.208-1.458,4.857,0.833,2.847c2.292-2.015,5.553-4.097,7.429-4.931 c1.874-0.832,0.064-3.18-2.917-2.637C203.905,191.47,201.544,193.273,200.086,195.914z"/><path d="M199.392,200.139L199.392,200.139c-0.334-0.001-0.619-0.159-0.782-0.437c-0.507-0.86,0.285-2.667,1.039-4.03 c1.587-2.874,4.065-4.676,5.693-4.971c0.322-0.059,0.646-0.088,0.96-0.088c1.859,0,3.076,1.005,3.276,1.951 c0.154,0.726-0.23,1.37-1.027,1.724c-1.775,0.789-4.992,2.819-7.302,4.849C200.481,199.811,199.873,200.139,199.392,200.139z M199.388,199.139l0.004,0.501v-0.5C199.391,199.139,199.389,199.139,199.388,199.139z M206.303,191.613 c-0.255,0-0.517,0.024-0.782,0.072c-1.381,0.25-3.627,1.991-4.997,4.471c-0.939,1.698-1.124,2.675-1.072,2.975 c0.13-0.03,0.474-0.162,1.138-0.746c2.381-2.093,5.712-4.192,7.555-5.012c0.354-0.157,0.507-0.359,0.456-0.602 C208.498,192.286,207.642,191.613,206.303,191.613z"/></g><g><path d="M220.844,191.609c1.804-3.262,4.787-6.525,6.316-6.109c1.528,0.416,2.221,2.5,1.318,3.125 c-0.903,0.624-1.598-1.111-4.581,0.902C221.281,191.291,220.704,192.164,220.844,191.609z"/><path d="M220.858,192.275h-0.245l-0.174-0.204c-0.172-0.221-0.107-0.477-0.08-0.585l0.047-0.119 c1.846-3.337,5.021-6.861,6.885-6.35c1.194,0.325,1.901,1.43,2.054,2.319c0.124,0.725-0.093,1.36-0.583,1.699 c-0.423,0.292-0.925,0.245-1.413,0.117c-0.249-0.065-0.507-0.133-0.827-0.133c-0.66,0-1.427,0.302-2.347,0.922 c-1.232,0.83-2.002,1.458-2.462,1.833C221.255,192.149,221.101,192.275,220.858,192.275z M226.879,185.964 c-0.977,0-2.794,1.688-4.368,3.926c0.321-0.235,0.688-0.495,1.107-0.777c1.09-0.736,2.04-1.093,2.906-1.093 c0.449,0,0.799,0.092,1.081,0.166c0.259,0.068,0.397,0.161,0.589,0.028c0.161-0.111,0.223-0.376,0.166-0.708 c-0.104-0.605-0.595-1.323-1.331-1.523C226.984,185.97,226.934,185.964,226.879,185.964z"/></g><g><path d="M215.416,218.998c-1.443,0-2.823-0.56-4.13-1.669c-1.094-0.902-2.194-2.257-3.094-3.811 c-0.139-0.239-0.057-0.545,0.182-0.683c0.239-0.138,0.544-0.057,0.683,0.182c0.842,1.453,1.861,2.712,2.871,3.544 c1.4,1.189,2.868,1.644,4.379,1.353c0.636-0.16,1.393-0.4,1.983-0.924c0.206-0.184,0.521-0.166,0.706,0.042 c0.184,0.206,0.165,0.522-0.042,0.706c-0.752,0.669-1.651,0.958-2.431,1.153C216.15,218.962,215.781,218.998,215.416,218.998z"/></g><g><path d="M219.316,215.504c-0.255,0-0.51-0.018-0.765-0.037c-0.802-0.058-1.611-0.081-2.379-0.188 c-0.353-0.049-0.706-0.098-1.059-0.125c-0.976-0.16-1.759-0.295-2.644-0.498c-0.265-0.071-0.51-0.131-0.756-0.19 c-0.518-0.125-1.053-0.255-1.594-0.452c-0.286-0.081-0.586-0.216-0.905-0.359c-0.201-0.091-0.409-0.185-0.627-0.268 c-0.258-0.098-0.388-0.386-0.29-0.645c0.098-0.258,0.389-0.388,0.645-0.29c0.238,0.09,0.464,0.191,0.684,0.29 c0.284,0.128,0.553,0.249,0.803,0.32c0.522,0.189,1.007,0.307,1.52,0.431c0.255,0.061,0.509,0.123,0.764,0.192 c0.837,0.191,1.606,0.323,2.521,0.476c0.329,0.023,0.703,0.074,1.076,0.126c0.81,0.112,1.558,0.127,2.314,0.181 c0.6,0.044,1.189,0.012,1.84-0.096l0.184,0.983C220.204,215.431,219.767,215.504,219.316,215.504z"/></g><g><path style="fill:#495edb" d="M217.147,198.682c0.588-0.853,1.33-1.507,2.301-1.895c1.017-0.405,1.828,0.101,2.678,0.605 c0.556,0.33,1.059-0.535,0.505-0.863c-1.161-0.689-2.103-1.109-3.449-0.706c-1.222,0.366-2.195,1.333-2.898,2.354 C215.916,198.71,216.784,199.209,217.147,198.682L217.147,198.682z"/></g><g><path style="fill:#495edb" d="M212.626,187.984c-12.368-7.697-20.67,14.058-10.838,21.265 c5.162,3.783,11.385,0.653,13.921-4.583C218.252,199.413,217.639,191.607,212.626,187.984c-0.524-0.378-1.022,0.489-0.505,0.863 c4.407,3.185,4.747,9.693,3.098,14.408c-1.901,5.439-8.339,8.99-13.262,4.84c-8.138-6.861-0.936-26.156,10.164-19.248 C212.67,189.189,213.172,188.324,212.626,187.984z"/></g><g><path style="fill:#495edb" d="M189.598,208.266c3.217-0.949,6.433-1.897,9.649-2.847c0.617-0.182,0.355-1.147-0.266-0.964 c-3.217,0.949-6.433,1.897-9.649,2.847C188.715,207.484,188.978,208.449,189.598,208.266L189.598,208.266z"/></g><g><path style="fill:#495edb" d="M235.834,195.422c0.687-4.199,0.623-11.261-3.726-13.629c-1.918-1.045-4.189-0.04-5.696,1.222 c-2.477,2.076-3.484,5.772-4.042,8.797c-0.756,4.099-1.19,12.761,4.723,13.453C232.541,205.902,234.986,199.805,235.834,195.422 c0.122-0.63-0.842-0.898-0.964-0.266c-0.703,3.633-2.342,8.717-6.656,9.156c-5.534,0.564-5.4-7.213-5.08-10.768 c0.333-3.699,3.187-13.765,8.855-10.679c3.605,1.963,3.436,8.896,2.88,12.29C234.767,195.787,235.73,196.057,235.834,195.422z"/></g><path style="fill:#ffd4d4" d="M234.032,438.324c1.136-1.819-0.811-4.639-1.805-5.692c-2.935-3.11-5.97-5.832-11.707-6.108 c-2.103-0.102-6.814,0.839-8.886,0.37c-3.357-0.759-4.722-24.249-4.722-24.249c-13.328,1.805-27.582,3.888-27.582,3.888 s7.508,30.168,9.534,32.21c2.519,2.536,5.241,3.551,8.422,2.774c3.045-0.741,8.152-1.77,11.292-2.035 c3.434-0.294,6.233,0.025,9.441,1.11c1.342,0.453,1.52,1.589,4.074,0.65c1.029-0.381,3.564,1.064,4.627,0.738 c0,0,1.759-0.972,2.037-1.389C229.036,440.175,232.089,441.419,234.032,438.324z"/><g><path style="fill:#495edb" d="M146.935,336.002l-1.11,6.664c0,0,7.034,5.366,19.991,6.849 c2.593,12.588,13.515,57.018,13.515,57.018c9.441,2.221,23.602-0.188,28.045-3.148c-0.185-13.884-5.459-46.278-6.941-49.057 c6.479,1.48,10.182,0.558,10.182,0.558c4.072-12.405,9.07-25.918,10.921-31.102c1.852-5.183,3.703-7.404,8.146-9.255 c4.443-1.852,19.253-8.329,16.289-32.211c9.441,1.296,23.327,3.517,23.327,3.517l-0.37-39.614c0,0-23.882-11.849-44.244-1.852 c6.294,5.924,4.259,16.292-7.22,21.845c-11.477,5.555-27.028,0.74-36.098-10.367c-10.366,2.962-24.621,11.85-28.323,30.915 C149.342,305.827,146.935,336.002,146.935,336.002z"/><g><path style="fill:#495edb" d="M146.453,335.869c-0.37,2.222-0.74,4.442-1.11,6.664c-0.041,0.246,0.033,0.416,0.229,0.564 c1.629,1.228,3.526,2.14,5.375,2.976c1.934,0.874,3.941,1.572,5.973,2.179c0.832,0.248,8.442,1.535,8.471,1.674 c1.431,6.914,3.101,13.782,4.729,20.65c2.856,12.043,5.774,24.07,8.728,36.089c0.04,0.161,0.185,0.313,0.349,0.35 c8.051,1.784,17.216,1.028,25.01-1.613c1.19-0.403,2.357-0.914,3.42-1.586c0.65-0.411,0.189-2.502,0.16-3.149 c-0.161-3.53-0.505-7.054-0.883-10.566c-0.823-7.66-1.923-15.296-3.201-22.893c-0.498-2.959-1.031-5.914-1.656-8.85 c-0.3-1.409-0.536-2.977-1.182-4.282c-0.188,0.244-0.376,0.489-0.564,0.734c3.312,0.712,7.079,1.35,10.447,0.558 c0.442-0.104,0.551-0.961,0.629-1.197c0.563-1.709,1.139-3.415,1.718-5.119c1.041-3.064,2.109-6.117,3.186-9.168 c1.693-4.794,3.43-9.571,5.157-14.354c1.747-4.836,3.585-8.516,8.538-10.586c4.32-1.806,8.165-4.404,11.119-8.078 c5.528-6.877,6.362-16.081,5.377-24.548c-0.211,0.161-0.422,0.321-0.633,0.482c7.789,1.075,15.562,2.275,23.327,3.517 c0.313,0.05,0.636-0.13,0.633-0.482c-0.124-13.205-0.247-26.409-0.37-39.614c-0.001-0.167-0.092-0.355-0.248-0.432 c-13.494-6.648-30.988-8.411-44.749-1.852c-0.293,0.14-0.317,0.573-0.101,0.785c3.551,3.493,4.212,8.306,2.067,12.756 c-2.46,5.104-8.099,8.404-13.381,9.818c-11.529,3.087-23.985-3.044-31.296-11.804c-0.11-0.132-0.328-0.175-0.486-0.129 c-7.081,2.069-13.519,5.951-18.622,11.281c-6.718,7.017-9.404,15.825-10.986,25.182c-2.469,14.604-4.01,29.415-5.191,44.176 c-0.051,0.643,0.949,0.639,1,0c0.537-6.713,1.214-13.417,1.955-20.111c0.674-6.099,1.434-12.189,2.329-18.259 c0.863-5.852,1.66-11.83,3.663-17.419c3.7-10.323,12.037-18.343,22.078-22.488c0.895-0.369,1.808-0.691,2.727-0.995 c1.407-0.467,1.86,0.693,2.794,1.677c2.037,2.145,4.406,3.964,6.9,5.541c4.605,2.914,9.942,4.631,15.366,5.029 c7.444,0.547,15.831-2.414,20.425-8.511c3.872-5.139,4.111-11.786-0.632-16.451c-0.034,0.262-0.067,0.523-0.101,0.785 c11.247-5.361,24.064-4.661,35.75-1.164c2.659,0.796,5.302,1.746,7.814,2.931c0.058,0.027-0.074-0.628-0.066,0.299 c0.009,0.972,0.018,1.943,0.027,2.916c0.112,12.018,0.225,24.035,0.337,36.053c0.211-0.161,0.422-0.321,0.633-0.482 c-7.765-1.24-15.538-2.441-23.327-3.517c-0.284-0.039-0.674,0.124-0.633,0.482c1,8.592,0.09,17.654-5.635,24.515 c-3.168,3.795-7.256,5.765-11.607,7.806c-3.335,1.564-5.257,4.295-6.644,7.61c-1.639,3.917-2.927,8.023-4.361,12.017 c-2.039,5.677-4.036,11.367-5.96,17.084c-0.112,0.334-0.872,3.074-0.892,3.078c-0.485,0.105-0.981,0.146-1.475,0.188 c-2.791,0.235-5.61-0.186-8.331-0.771c-0.442-0.095-0.762,0.335-0.564,0.734c1.066,2.156,1.295,4.999,1.741,7.326 c0.881,4.596,1.617,9.22,2.304,13.848c0.797,5.371,1.492,10.759,2.048,16.161c0.231,2.245,0.425,4.493,0.577,6.745 c0.066,0.984,0.116,1.969,0.156,2.954c0.055,1.345,0.082,1.536-1.147,2.13c-5.135,2.479-11.514,3.03-17.119,3.15 c-1.477,0.031-2.953-0.031-4.426-0.137c-0.474-0.034-4.351-0.47-4.326-0.364c-0.105-0.429-0.21-0.857-0.315-1.285 c-1.615-6.587-3.218-13.176-4.81-19.768c-2.888-11.957-5.894-23.909-8.388-35.957c-0.048-0.235-0.269-0.341-0.482-0.367 c-6.404-0.785-12.81-2.544-18.376-5.882c-0.402-0.241-0.796-0.498-1.181-0.767c-0.383-0.269,0.123-0.015,0.055,0.389 c0.051-0.303,0.101-0.607,0.152-0.909c0.317-1.903,0.634-3.808,0.951-5.711C147.522,335.504,146.559,335.234,146.453,335.869z"/></g></g><g><path d="M165.815,350.015c-0.233,0-0.441-0.164-0.49-0.4c-3.072-15.179-6.415-29.776-8.131-35.5 c-0.079-0.265,0.071-0.543,0.336-0.622c0.264-0.082,0.543,0.07,0.622,0.335c1.723,5.749,5.076,20.384,8.154,35.588 c0.055,0.271-0.121,0.535-0.391,0.59C165.882,350.012,165.848,350.015,165.815,350.015z"/></g><g><path d="M200.991,355.752c-0.236,0-0.446-0.167-0.491-0.407c-0.249-1.321-0.935-2.869-1.804-4.829 c-1.012-2.283-2.271-5.124-3.37-8.818c-1.272-4.285-1.545-14.046-1.785-22.657c-0.147-5.278-0.286-10.264-0.639-13.153 c-0.034-0.274,0.162-0.523,0.436-0.557c0.275-0.043,0.523,0.161,0.557,0.435c0.359,2.936,0.499,7.944,0.646,13.246 c0.239,8.55,0.509,18.241,1.745,22.4c1.08,3.633,2.325,6.441,3.326,8.698c0.895,2.02,1.602,3.614,1.872,5.049 c0.051,0.271-0.127,0.533-0.399,0.584C201.053,355.749,201.022,355.752,200.991,355.752z"/></g><g><path d="M246.158,283.558c-0.253,0-0.47-0.191-0.497-0.448c-0.005-0.054-0.56-5.4-1.108-9.049 c-0.041-0.273,0.148-0.527,0.42-0.568c0.282-0.039,0.527,0.147,0.569,0.42c0.551,3.671,1.108,9.04,1.114,9.094 c0.028,0.275-0.171,0.521-0.446,0.549C246.193,283.557,246.175,283.558,246.158,283.558z"/></g><g><path d="M160.078,430.909c-0.264,0-0.485-0.207-0.499-0.475l-0.648-12.68c-0.014-0.275,0.198-0.511,0.474-0.524 c0.261-0.034,0.511,0.197,0.525,0.474l0.647,12.68c0.014,0.275-0.198,0.511-0.474,0.524 C160.095,430.909,160.087,430.909,160.078,430.909z"/></g><g><path d="M159.706,422.766c-0.23,0-0.437-0.159-0.488-0.393c-0.06-0.27,0.111-0.536,0.381-0.596l8.426-1.853 c0.268-0.061,0.536,0.11,0.596,0.381c0.06,0.27-0.111,0.536-0.381,0.596l-8.426,1.853 C159.778,422.762,159.742,422.766,159.706,422.766z"/></g><g><path d="M222.371,441.462c-0.214,0-0.412-0.138-0.478-0.354c-0.081-0.264,0.067-0.543,0.331-0.624 c0.121-0.037,0.148-0.089,0.166-0.139c0.151-0.422-0.316-1.473-0.712-2.069c-1.625-2.221-4.549-3.959-7.436-4.409 c-1.254-0.268-2.479-0.181-3.775-0.087c-0.572,0.057-1.156,0.192-1.775,0.337c-0.314,0.073-0.626,0.146-0.939,0.208 c-0.271,0.058-0.534-0.121-0.588-0.393c-0.054-0.27,0.122-0.534,0.393-0.588c0.302-0.06,0.605-0.131,0.908-0.201 c0.623-0.146,1.267-0.295,1.917-0.36c1.322-0.095,2.675-0.191,4.042,0.101c3.108,0.484,6.288,2.379,8.075,4.821 c0.138,0.207,1.222,1.89,0.833,2.977c-0.133,0.373-0.415,0.635-0.813,0.757C222.469,441.455,222.419,441.462,222.371,441.462z"/></g><g><path d="M227.74,441.556c-0.184,0-0.36-0.102-0.448-0.276c-0.124-0.247-0.023-0.547,0.224-0.671 c0.742-0.371,1.055-0.728,1.115-1.275c0.187-0.768,0.16-1.484-0.064-2.081c-0.448-1.607-1.934-2.975-3.018-3.974 c-1.286-1.195-2.981-1.915-4.47-2.495c-1.486-0.576-2.962-0.715-4.643-0.434c-0.721,0.05-1.416,0.165-2.088,0.277 c-0.692,0.115-1.409,0.234-2.126,0.282c-0.269,0.033-0.514-0.19-0.532-0.466c-0.018-0.275,0.19-0.514,0.466-0.532 c0.668-0.045,1.36-0.159,2.028-0.271c0.696-0.116,1.417-0.236,2.137-0.283c1.815-0.306,3.46-0.152,5.121,0.494 c1.575,0.614,3.372,1.379,4.786,2.692c1.171,1.079,2.778,2.56,3.289,4.398c0.281,0.743,0.32,1.67,0.096,2.567 c-0.117,1.087-0.944,1.64-1.65,1.993C227.892,441.539,227.815,441.556,227.74,441.556z"/></g><path style="fill:#ffd4d4" d="M311.783,206.05l-2.498-9.998c0,0,6.477-16.843,9.994-17.4c3.518-0.556,7.592-2.778,6.296-9.071 c-1.297-6.293-4.445-4.813-4.445-4.813c-3.145-5.367-5.924-4.997-7.773-4.071c-4.998-6.664-15.736-7.59-21.66,3.332 c-5.922,10.922-3.887,31.839,0.186,56.275C298.177,216.045,311.783,206.05,311.783,206.05z"/><g><path d="M207.315,274.374c-6.758,0-17.449-1.7-27.317-10.54c-0.206-0.184-0.223-0.5-0.039-0.706 c0.186-0.206,0.501-0.222,0.706-0.038c10.979,9.833,22.997,10.607,29.18,10.201c7.107-0.473,13.544-2.935,16.399-6.272 c3.532-4.263,4.945-10.066,5.087-14.074c0.01-0.277,0.269-0.487,0.517-0.482c0.276,0.01,0.492,0.242,0.482,0.518 c-0.192,5.404-2.182,10.893-5.322,14.684c-3.026,3.538-9.735,6.137-17.098,6.626 C209.132,274.341,208.262,274.374,207.315,274.374z"/></g></g><g><path style="fill:#7db3db" d="M297.352,191.29c-3.607-1.326-4.146-4.426-1.192-6.886l15.952-13.293 c2.953-2.462,5.902-1.376,6.556,2.413l3.54,20.457c0.655,3.789-1.761,5.801-5.368,4.475L297.352,191.29z"/><path style="fill:#ffd4d4" d="M313.746,171.542c0.186,3.313,2.117,4.049,3.497,3.222c-0.551,3.681,2.762,4.415,3.683,3.587 c0.92-0.827-0.277-11.594-6.719-10.766C313.287,170.07,313.746,171.542,313.746,171.542z"/><path style="fill:#ffd4d4" d="M307.351,156.126c-8.423-2.345-16.289,4.28-18.774,16.842c-1.133,5.727-0.831,13.465-0.074,21.012 c1.389,0.129,2.759,0.36,4.115,0.668l0.514-9.809c2.348,0.691,12.701,2.071,14.22-3.588c1.518-5.66-5.247-7.455-11.32-5.246 c0.69-3.037,2.208-8.145,6.073-9.525c3.866-1.38,6.212,8.56,10.63,6.074C317.151,170.07,315.77,158.474,307.351,156.126z"/><g><path d="M298.716,186.005c-2.461,0-4.716-0.389-5.726-0.687c-0.265-0.078-0.417-0.356-0.338-0.621 c0.078-0.264,0.356-0.418,0.621-0.338c1.75,0.515,7.957,1.378,11.411-0.559c1.145-0.642,1.88-1.543,2.185-2.679 c0.454-1.691,0.14-3.047-0.933-4.03c-1.912-1.753-5.914-2.005-9.734-0.617c-0.17,0.064-0.363,0.027-0.501-0.095 c-0.137-0.121-0.198-0.308-0.157-0.486c1.266-5.567,3.357-8.801,6.392-9.885c2.149-0.769,3.778,1.264,5.358,3.227 c1.942,2.413,3.352,3.918,5.195,2.883c0.954-0.538,1.639-1.583,1.979-3.025c0.625-2.646-0.065-5.974-1.757-8.48 c-0.154-0.229-0.094-0.54,0.135-0.694c0.229-0.154,0.54-0.094,0.694,0.135c1.841,2.726,2.587,6.364,1.901,9.269 c-0.407,1.72-1.258,2.988-2.462,3.666c-2.715,1.53-4.709-0.943-6.465-3.127c-1.422-1.768-2.766-3.436-4.242-2.912 c-2.535,0.906-4.353,3.624-5.545,8.297c3.89-1.168,7.86-0.748,9.884,1.107c0.941,0.863,1.917,2.435,1.223,5.026 c-0.377,1.406-1.273,2.513-2.662,3.292C303.372,185.682,300.958,186.005,298.716,186.005z"/></g><g><path d="M315.764,175.569c-0.15,0-0.296-0.012-0.439-0.037c-0.735-0.129-1.989-0.72-2.124-3.228 c-0.015-0.276,0.197-0.511,0.473-0.526c0.272-0.02,0.511,0.197,0.526,0.473c0.051,0.953,0.318,2.125,1.298,2.297 c1.437,0.247,3.964-1.634,5.194-4.536c0.647-1.521,0.475-3.598-0.458-5.555c-0.119-0.249-0.013-0.548,0.236-0.667 c0.248-0.12,0.548-0.014,0.667,0.236c1.071,2.245,1.245,4.569,0.477,6.377C320.372,173.331,317.79,175.569,315.764,175.569z"/></g><g><path d="M319.749,179.096c-0.706,0-1.348-0.22-1.856-0.65c-0.943-0.8-1.283-2.189-0.956-3.914 c0.051-0.271,0.307-0.451,0.584-0.398c0.271,0.051,0.449,0.313,0.398,0.585c-0.256,1.354-0.036,2.408,0.621,2.964 c0.542,0.46,1.363,0.538,2.249,0.214c0.259-0.095,0.547,0.038,0.641,0.297c0.095,0.259-0.038,0.546-0.297,0.641 C320.658,179.01,320.191,179.096,319.749,179.096z"/></g></g><g><path style="fill:#def2ff" d="M455.621,223.574l-74.35-42.925c-7.406-4.276-19.526-4.276-26.931,0l-74.35,42.925 c-7.406,4.276-13.466,14.772-13.466,23.324v85.852c0,8.552,6.06,19.048,13.466,23.325l74.35,42.924 c7.405,4.277,19.525,4.277,26.931,0l74.35-42.924c7.406-4.277,13.465-14.773,13.465-23.325v-85.852 C469.086,238.347,463.027,227.851,455.621,223.574z"/><g><g><path style="fill:#f2ac30" d="M419.799,273.209c0-28.012-22.711-50.722-50.723-50.722c-28.013,0-50.722,22.71-50.722,50.722 c0,20.236,11.852,37.699,28.992,45.84c5.543,3.367,5.557,7.739,5.315,15.546c-0.202,6.572-0.646,11.867,2.382,14.648 c2.418,2.648,7.785,4.493,14.032,4.493c6.249,0,11.614-1.845,14.034-4.493c3.029-2.781,2.584-8.076,2.381-14.648 c-0.24-7.807-0.227-12.179,5.314-15.546C407.945,310.908,419.799,293.445,419.799,273.209z"/><g><path style="fill:#f2ac30" d="M420.299,273.209c-0.149-21.905-14.209-41.462-34.932-48.575 c-20.902-7.175-44.36,0.656-57.503,18.157c-13.788,18.359-12.928,44.308,1.078,62.239c3.498,4.478,7.823,8.27,12.578,11.359 c2.425,1.576,5.259,2.594,7.465,4.471c2.207,1.877,2.936,4.614,3.17,7.387c0.497,5.877-1.003,11.965,0.451,17.752 c1.173,4.669,6.233,6.709,10.46,7.645c7.139,1.579,19.832,0.824,22.482-7.645c2.622-8.383-3.989-21.924,6.149-26.827 C409.162,310.726,420.158,292.462,420.299,273.209c0.005-0.646-0.995-0.645-1,0c-0.094,12.777-4.878,24.924-13.552,34.31 c-4.13,4.469-9.126,8.069-14.555,10.789c-4.048,2.028-5.824,5.563-6.194,9.939c-0.513,6.047,1.674,13.311-0.99,18.985 c-2.835,6.039-12.874,6.359-18.392,5.812c-3.305-0.329-6.814-1.337-9.45-3.419c-2.644-2.09-3.046-5.267-3.143-8.426 c-0.17-5.549,1.122-11.528-0.599-16.93c-1.526-4.79-6.544-6.313-10.4-8.743c-5.293-3.336-9.869-7.761-13.574-12.785 c-7.42-10.061-10.56-22.728-9.293-35.104c2.448-23.906,22.681-42.749,46.418-44.53c13.884-1.042,27.666,4.035,37.839,13.453 c10.161,9.408,15.792,22.868,15.886,36.65C419.303,273.853,420.303,273.854,420.299,273.209z"/></g></g><g><path style="fill:#32015c" d="M385.568,327.505c-5.271,1.173-10.797,1.795-16.493,1.795c-5.693,0-11.22-0.622-16.492-1.795 c0.211,2.007,0.163,4.332,0.078,7.09c-0.202,6.572-0.646,11.867,2.382,14.648c2.418,2.648,7.785,4.493,14.032,4.493 c6.249,0,11.614-1.845,14.034-4.493c3.029-2.781,2.584-8.076,2.381-14.648C385.406,331.837,385.357,329.512,385.568,327.505z"/><g><path style="fill:#32015c" d="M385.435,327.022c-10.798,2.334-21.922,2.333-32.719,0c-0.292-0.063-0.664,0.141-0.633,0.482 c0.58,6.468-1.654,14.154,1.199,20.231c2.523,5.378,10.674,6.428,15.793,6.5c5.464,0.077,12.84-1.304,15.795-6.5 c1.336-2.35,1.273-5.469,1.264-8.074c-0.015-4.053-0.429-8.109-0.066-12.157c0.058-0.643-0.943-0.637-1,0 c-0.538,6.004,0.995,12.332-0.485,18.227c-1.564,6.228-10.245,7.431-15.507,7.505c-5.536,0.078-13.601-1.416-15.506-7.505 c-0.837-2.677-0.578-5.76-0.495-8.522c0.097-3.232,0.298-6.477,0.009-9.704c-0.211,0.161-0.422,0.321-0.633,0.482 c10.973,2.37,22.278,2.371,33.251,0C386.331,327.851,386.064,326.887,385.435,327.022z"/></g></g><g><path style="fill:#32015c" d="M363.147,330.91c-0.012,0-0.023,0-0.035-0.001c-0.552-0.019-0.984-0.482-0.965-1.033 c0.315-9.136-1.082-21.299-4.531-30.972c-1.053,0.128-2.129,0.176-3.23,0.145c-9.749-0.285-15.329-5.412-17.145-9.717 c-1.143-2.71-0.932-5.301,0.564-6.93c0.958-1.042,3.294-2.553,8.186-0.961c5.932,1.932,10.099,7.887,12.935,15.219 c3.871-0.816,6.854-2.787,9.063-4.908c-5.168-5.099-8.723-12.744-8.99-20.088c-0.301-8.313,4.233-11.979,8.577-12.638 c4.881-0.742,9.49,2.13,10.721,6.674c1.612,5.952-0.658,17.393-6.608,24.936c-0.276,0.351-0.557,0.69-0.844,1.018 c1.002,0.833,2.057,1.564,3.151,2.169c1.196,0.662,2.417,1.169,3.654,1.521c3.646-10.979,8.955-15.733,11.954-17.64 c2.738-1.744,5.888-1.964,8.426-0.594c2.177,1.176,3.497,3.355,3.531,5.832c0.034,2.442-1.168,7.266-9.599,12.127 c-4.882,2.814-9.27,3.25-12.901,2.645c-2.17,7.232-3.633,17.107-3.271,30.521c0.015,0.553-0.421,1.012-0.973,1.027 c-0.54-0.004-1.013-0.42-1.027-0.973c-0.364-13.532,1.065-23.585,3.261-31.034c-1.516-0.438-2.864-1.039-4.024-1.682 c-1.238-0.686-2.428-1.516-3.555-2.467c-2.861,2.789-6.189,4.627-9.852,5.452c3.69,10.659,4.794,23.613,4.526,31.386 C364.128,330.484,363.684,330.91,363.147,330.91z M342.092,282.743c-1.233,0-2.195,0.339-2.814,1.013 c-0.952,1.036-1.025,2.83-0.194,4.799c1.585,3.758,6.56,8.237,15.36,8.494c0.846,0.025,1.66-0.003,2.441-0.078 c-2.704-6.75-6.499-11.995-11.513-13.627C344.142,282.942,343.037,282.743,342.092,282.743z M379.68,295.779 c3.706,0.54,7.526-0.276,11.284-2.442c5.512-3.179,8.645-6.957,8.598-10.366c-0.024-1.768-0.929-3.262-2.481-4.101 c-1.891-1.021-4.284-0.826-6.402,0.522C388.464,280.799,383.313,285.069,379.68,295.779z M369.038,260.917 c-0.394,0-0.784,0.029-1.162,0.087c-3.492,0.529-7.132,3.589-6.878,10.588c0.25,6.855,3.558,13.984,8.364,18.719 c0.268-0.307,0.52-0.611,0.757-0.912c6.083-7.714,7.538-18.416,6.249-23.175C375.393,262.631,372.073,260.917,369.038,260.917z"/></g><g><path d="M368.556,335.849c-4.389,0-8.884-0.446-13.282-1.74c-0.265-0.078-0.416-0.355-0.338-0.62 c0.078-0.266,0.357-0.415,0.621-0.339c8.714,2.563,17.884,1.722,25.797,0.733c0.255-0.036,0.524,0.158,0.558,0.435 c0.034,0.273-0.16,0.523-0.435,0.558C377.425,335.382,373.045,335.849,368.556,335.849z"/></g></g><path style="fill:#d4336e" d="M292.167,320.729c-3.016,2.362-5.924,1.192-6.461-2.601l-2.9-20.487 c-0.537-3.795,1.929-5.726,5.482-4.294l19.191,7.729c3.555,1.432,3.994,4.534,0.978,6.896L292.167,320.729z"/><g><path style="fill:#495edb" d="M359.788,383.404c-0.607,0-1.189-0.117-1.708-0.359c-0.836-0.39-2.23-1.471-2.168-4.338 c0.058-2.68,1.685-4.997,4.579-6.524c0.483-0.255,0.989-0.483,1.515-0.685c-1.908-1.677-4.508-2.837-7.191-3.047 c-2.129-0.167-6.01,0.183-8.116,4.396c-0.124,0.246-0.424,0.349-0.671,0.224c-0.247-0.124-0.347-0.424-0.224-0.671 c1.73-3.46,5.043-5.269,9.089-4.945c3.084,0.242,6.072,1.656,8.177,3.68c5.033-1.529,11.411-0.834,15.626,1.916 c0.232,0.151,0.296,0.461,0.146,0.692c-0.15,0.231-0.46,0.296-0.692,0.146c-3.855-2.516-9.63-3.211-14.309-1.939 c0.845,0.984,1.487,2.079,1.852,3.231c0.767,2.42,0.071,4.879-1.862,6.577C362.613,382.826,361.137,383.404,359.788,383.404z M362.799,372.27c-0.645,0.226-1.261,0.49-1.842,0.797c-1.81,0.956-3.981,2.713-4.045,5.662c-0.038,1.729,0.512,2.908,1.59,3.41 c1.301,0.607,3.22,0.14,4.668-1.133c0.781-0.686,2.497-2.598,1.569-5.523C364.373,374.327,363.696,373.234,362.799,372.27z"/></g><path style="fill:#7db3db" d="M439.743,331.419c0,6.644-5.388,12.031-12.032,12.031c-6.645,0-12.032-5.388-12.032-12.031 c0-6.646,5.388-12.033,12.032-12.033C434.355,319.386,439.743,324.773,439.743,331.419z"/><path style="fill:#ffc4c4" d="M440.703,242.62c-1.949,2.563-5.607,3.061-8.17,1.111l-9.064-6.89 c-2.563-1.949-3.061-5.608-1.111-8.172l0,0c1.949-2.564,5.607-3.061,8.172-1.112l9.063,6.891 C442.154,236.396,442.652,240.055,440.703,242.62L440.703,242.62z"/><path style="fill:#ffc4c4" d="M315.097,337.713c3.064-0.99,6.351,0.695,7.339,3.761l3.493,10.836 c0.988,3.064-0.696,6.349-3.762,7.338l0,0c-3.064,0.99-6.35-0.695-7.34-3.761l-3.492-10.836 C310.348,341.986,312.033,338.7,315.097,337.713L315.097,337.713z"/><g><path style="fill:#495edb" d="M299.147,254.217c-4.64,0-8.414-3.774-8.414-8.414c0-4.64,3.774-8.414,8.414-8.414 c4.64,0,8.414,3.774,8.414,8.414C307.561,250.442,303.787,254.217,299.147,254.217z M299.147,238.389 c-4.088,0-7.414,3.326-7.414,7.414c0,4.088,3.326,7.414,7.414,7.414c4.088,0,7.414-3.326,7.414-7.414 C306.561,241.715,303.235,238.389,299.147,238.389z"/></g><g><path style="fill:#f2ac30" d="M343.835,215.545c-1.668,0-3.478-0.292-5.497-0.867c-0.265-0.076-0.419-0.353-0.344-0.618 c0.076-0.265,0.353-0.42,0.618-0.344c5.264,1.499,8.855,1.016,12.393-1.673c0.959-0.729,2.047-1.671,3.095-2.748 c-1.708-0.812-3.183-2.145-4.273-3.927c-1.323-2.163-1.628-5.331-0.727-7.534c0.642-1.568,1.823-2.607,3.416-3.005 c2.452-0.314,5.483,0.868,6.419,3.363c1.859,3.711-0.544,7.772-3.099,10.688c1.174,0.335,2.435,0.421,3.734,0.233 c4.043-0.587,7.344-3.546,8.411-7.54c0.071-0.267,0.349-0.425,0.612-0.354c0.267,0.071,0.425,0.345,0.354,0.612 c-1.17,4.381-4.794,7.627-9.233,8.272c-1.621,0.233-3.189,0.087-4.625-0.404c-1.59,1.672-3.084,2.841-3.478,3.141 C349.216,214.659,346.741,215.545,343.835,215.545z M353.315,195.773c-0.21,0-0.415,0.013-0.615,0.038 c-1.231,0.311-2.15,1.123-2.674,2.403c-0.79,1.931-0.516,4.721,0.654,6.633c1.045,1.708,2.482,2.959,4.144,3.673 c2.672-2.982,4.777-6.768,3.196-9.928C357.326,196.747,355.169,195.773,353.315,195.773z"/></g></g><g><path style="fill:#ffd4d4" d="M486.994,318.667c-0.418-3.61-2.434-11.164-3.938-15.063c-1.109-2.876-0.305-4.674-4.609-7.173 c-4.305-2.499-9.58-6.942-10.553-7.358c-0.971-0.417-2.498-6.386-8.191-1.11c-5.689,5.275-11.938,5.692-13.465,0.693 c-2.916-0.555-4.582-2.914-3.75-4.581c0.834-1.666,7.498-6.247,7.498-6.247c-3.332,1.803-9.164,2.22-9.996-0.277 c-0.834-2.5,1.943-4.444,6.664-5.832c4.721-1.389,23.603-9.858,28.738-6.664c5.137,3.192,13.33,10.136,19.16,14.023 c5.832,3.886,7.914,10.134,10.691,17.492c2.775,7.358,4.998,15.134,4.998,15.134S502.959,324.499,486.994,318.667z"/><g><path d="M445.781,288.781c-1.252,0-2.427-0.484-3.346-1.818c-0.156-0.227-0.099-0.538,0.129-0.695 c0.225-0.155,0.537-0.101,0.695,0.129c1.816,2.639,4.926,1.068,8.22-0.927l0.662-0.398c0.251-0.131,0.482-0.246,0.715-0.36 c0.827-0.408,1.608-0.794,2.234-1.382c0.201-0.189,0.517-0.179,0.707,0.021c0.189,0.202,0.18,0.519-0.021,0.707 c-0.735,0.69-1.621,1.127-2.478,1.55c-0.226,0.111-0.45,0.223-0.671,0.338l-0.631,0.38 C450.325,287.338,447.94,288.781,445.781,288.781z"/></g><g><path d="M443.648,279.683c-0.551,0-1.113-0.06-1.701-0.215c-0.268-0.07-0.427-0.344-0.357-0.61 c0.069-0.268,0.346-0.431,0.61-0.356c1.322,0.348,2.579,0.12,3.911-0.119c0.319-0.059,0.643-0.116,0.972-0.169 c1.081-0.25,2.175-0.604,3.312-1.077c0.25-0.128,0.511-0.246,0.772-0.364c0.249-0.113,0.498-0.227,0.77-0.362 c0.185-0.094,0.37-0.208,0.56-0.325c0.376-0.232,0.803-0.496,1.285-0.635c0.263-0.08,0.542,0.076,0.618,0.343 c0.076,0.266-0.077,0.542-0.343,0.618c-0.35,0.101-0.698,0.316-1.035,0.524c-0.215,0.133-0.426,0.263-0.637,0.368 c-0.282,0.143-0.543,0.261-0.804,0.379c-0.249,0.113-0.498,0.227-0.77,0.362c-1.222,0.51-2.368,0.881-3.538,1.15 c-0.356,0.058-0.672,0.114-0.984,0.171C445.399,279.526,444.539,279.683,443.648,279.683z"/></g><path style="fill:#495edb" d="M480.344,267.14c1.957,1.303,2.494,3.969,1.197,5.928l-11.521,17.347 c-1.299,1.959-3.967,2.497-5.924,1.197l-17.348-11.518c-1.957-1.301-2.496-3.967-1.197-5.926l11.52-17.346 c1.301-1.961,3.969-2.497,5.926-1.198L480.344,267.14z"/><path style="fill:#ffd4d4" d="M572.861,217.175c-25.727,1.365-21.291,22.578-19.236,29.513 c1.881,6.346-6.856,11.64-2.396,19.476c4.461,7.835,12.326,12.081,24.545,12.638c0,0-0.605,13.608-1.16,18.047l25.549-1.666 c-1.07-7.869-3.379-24.19-0.232-30.267c1.279-2.472,9.004,7.905,17.213-4.719C625.353,247.571,598.588,215.81,572.861,217.175z"/><g><path d="M575.75,279.185c-0.263,0-0.483-0.205-0.499-0.471c-0.017-0.275,0.194-0.512,0.47-0.528 c6.148-0.363,12.698-2.878,17.522-6.726c0.215-0.171,0.53-0.137,0.702,0.079c0.173,0.216,0.137,0.53-0.079,0.702 c-4.979,3.974-11.74,6.569-18.087,6.943C575.769,279.185,575.76,279.185,575.75,279.185z"/></g><path d="M576.533,249.652c2.557-0.129,3.795,4.876,1.313,5.193C575.363,255.162,574.435,249.758,576.533,249.652z"/><g><path d="M576.908,250.648c-0.069,0-0.139-0.014-0.205-0.044l-0.153-0.069c-1.018-0.457-1.898-0.853-2.404-1.465 c-0.176-0.213-0.146-0.528,0.067-0.704c0.211-0.177,0.525-0.147,0.704,0.067c0.357,0.433,1.176,0.8,2.042,1.189l0.154,0.069 c0.252,0.113,0.364,0.409,0.251,0.661C577.28,250.539,577.099,250.648,576.908,250.648z"/></g><path d="M557.574,247.162c2.559-0.037,3.613,5.01,1.121,5.236C556.205,252.627,555.473,247.189,557.574,247.162z"/><g><path d="M557.93,248.171c-0.075,0-0.15-0.017-0.223-0.052l-0.168-0.084c-0.992-0.49-1.85-0.914-2.33-1.543 c-0.168-0.219-0.127-0.532,0.093-0.7c0.216-0.17,0.533-0.129,0.7,0.093c0.34,0.442,1.137,0.837,1.98,1.254l0.17,0.084 c0.247,0.123,0.348,0.423,0.226,0.671C558.29,248.069,558.113,248.171,557.93,248.171z"/></g><g><path d="M565.696,261.005c-1.635,0-3.267-0.188-4.669-1.445c-1.768-1.581-0.725-3.501-0.035-4.771 c1.01-1.864,2.036-4.074,1.992-6.333c-0.038-1.896-0.761-2.776-1.855-4.107l-0.456-0.559c-0.173-0.215-0.139-0.53,0.077-0.703 c0.214-0.17,0.529-0.138,0.702,0.077l0.449,0.55c1.139,1.385,2.038,2.479,2.083,4.723c0.048,2.491-1.041,4.85-2.113,6.829 c-0.818,1.508-1.273,2.569-0.177,3.55c1.409,1.264,3.169,1.222,5.03,1.174c0.285-0.007,0.569-0.015,0.853-0.017 c0.001,0,0.003,0,0.004,0c0.274,0,0.498,0.221,0.5,0.496c0.002,0.275-0.22,0.502-0.496,0.504 c-0.278,0.002-0.558,0.009-0.836,0.017C566.4,260.996,566.048,261.005,565.696,261.005z"/></g><g><path d="M568.565,268.668c-1.5,0-2.869-1.315-4.069-3.911c-0.075-0.164-0.057-0.356,0.049-0.503 c0.106-0.146,0.286-0.221,0.462-0.204c1.611,0.197,6.48-1.516,8.109-3.313c0.15-0.167,0.393-0.212,0.596-0.11 c0.2,0.101,0.309,0.324,0.265,0.544C573.352,264.284,571.263,268.668,568.565,268.668z M565.747,265.035 c0.91,1.727,1.876,2.633,2.817,2.633c1.679,0,3.243-2.692,4.045-5.213C570.609,263.809,567.544,264.854,565.747,265.035z"/></g><g><path style="fill:#d4336e" d="M572.664,243.254c-0.691-1.735,1.002-3.693,4.125-2.375c2.328,0.983,4.607,3.211,5.717,5.295 c1.111,2.081-0.211,0.869-1.529-0.17c-1.318-1.041-3.111-2.257-6.375-2.188C573.457,243.84,572.805,243.948,572.664,243.254z"/><path style="fill:#d4336e" d="M582.827,247.813c-0.378,0-0.801-0.327-1.722-1.066l-0.438-0.35 c-1.276-1.008-2.882-2.083-5.801-2.083l-0.617,0.013c-0.183,0.005-0.351,0.01-0.504,0.01c-0.445,0-1.372,0-1.571-0.983 c-0.292-0.71-0.21-1.557,0.251-2.236c0.818-1.206,2.627-1.514,4.559-0.698c2.334,0.986,4.73,3.204,5.964,5.52 c0.479,0.895,0.572,1.282,0.387,1.592C583.243,247.682,583.003,247.813,582.827,247.813L582.827,247.813z M574.866,243.314 c3.085,0,4.909,1.104,6.42,2.298l0.445,0.355c0.05,0.041,0.102,0.082,0.155,0.125c-1.165-1.986-3.294-3.907-5.292-4.751 c-1.481-0.625-2.793-0.47-3.343,0.339c-0.271,0.4-0.317,0.907-0.123,1.391c0.048,0.199,0.063,0.268,0.616,0.268 c0.144,0,0.302-0.005,0.474-0.01L574.866,243.314z"/></g><path style="fill:#d4336e" d="M552.125,237.427c2.221-3.794,11.107-13.329,23.51-18.605c0,11.663,6.199,29.804,20.547,30.265 c-0.463,4.814-1.018,8.331,0.184,8.794c1.207,0.464,5.184-2.128,5.832-7.867c3.428-3.701,11.66-2.5,13.514,3.333 c1.852,5.832-3.795,14.901-14.16,10.737c-1.666-0.278-3.703,2.776-3.332,9.439c8.422,0.927,17.68-2.036,22.771-10.735 c5.088-8.7,4.164-19.342-1.115-27.86c-5.273-8.517-6.293-11.941-5.273-16.291c15.365,3.148,24.908-7.598,22.828-21.203 c-2.084-13.607-15.158-21.999-29.875-18.25c-14.715,3.749-18.875,21.125-4,31.25c-2.084,2.359-8.482,0.058-16.535-3.689 c-8.053-3.748-32.033-9.226-43.873,9.304c-12.125,18.974,5.832,31.375,10.412,30.127 C551.893,241.175,552.125,237.427,552.125,237.427z"/><g><g><path style="fill:#7db3db" d="M670.877,384.315c-9.442-21.843-12.588-34.802-21.658-57.385 c-9.07-22.584-25.731-22.584-35.727-23.695c-9.998-1.109-13.221-5.664-13.777-13.067c-20.547,7.59-24.543-2.112-24.912-1.371 c-1.76,10.923-5.184,10.922-17.033,9.255c-11.846-1.665-27.025,17.586-39.242,33.322c0,0-7.406-20.827-9.258-23.974 c-9.719,8.469-17.676,7.561-23.647,5.62c0,0,2.594,9.19,4.109,15.576c-11.93,4.026,2.393,35.945,8.707,48.223 c11.568,22.492,31.73,15.802,47.098-7.523c3.723,3.852,7.9,7.777,8.088,9.629c0.184,1.85,0.074,11.502-0.852,17.055 c-0.924,5.553-5.553,21.474-5.553,22.027c0,0.556,5.922,14.995,5.922,14.995s58.127,1.112,57.943,9.441 c8.885-1.296,38.504,0.555,56.09-7.961C684.762,425.967,680.318,406.159,670.877,384.315z M625.709,409.121l2.406-26.286 l6.664,25.546L625.709,409.121z"/></g><g><path style="fill:#7db3db" d="M671.309,384.063c-5.219-12.116-9.565-24.535-13.972-36.959 c-2.31-6.509-4.718-12.979-7.271-19.396c-2.125-5.339-4.843-10.344-8.814-14.539c-5.573-5.888-13.192-8.682-21.075-9.711 c-4.014-0.523-8.128-0.592-12.003-1.858c-5.285-1.728-7.509-6.19-7.958-11.432c-0.025-0.299-0.304-0.601-0.633-0.482 c-6.914,2.5-17.073,5.372-23.299-0.303c-0.425-0.388-1.311-1.681-1.912-0.838c-0.466,0.651-0.457,2.321-0.648,3.132 c-0.248,1.053-0.59,2.081-1.043,3.063c-0.79,1.71-2.11,2.831-3.918,3.326c-4.22,1.156-8.702-0.695-12.941-0.605 c-4.321,0.092-8.388,2.617-11.751,5.091c-10.284,7.56-18.143,18.486-25.896,28.469c0.278,0.073,0.557,0.147,0.836,0.221 c-1.315-3.696-2.661-7.381-4.028-11.058c-1.604-4.314-2.998-9.014-5.28-13.035c-0.169-0.298-0.545-0.306-0.785-0.102 c-6.81,5.793-14.521,8.236-23.16,5.491c-0.366-0.116-0.716,0.259-0.615,0.615c1.457,5.168,2.859,10.354,4.109,15.576 c0.117-0.205,0.233-0.41,0.35-0.615c-6.613,2.43-5.149,11.522-4.038,16.873c1.958,9.427,5.903,18.516,10.019,27.177 c3.896,8.198,8.898,17.233,18.726,18.801c10.074,1.606,19.267-6.155,25.426-13.145c2.284-2.592,4.323-5.399,6.237-8.272 c-0.262,0.034-0.523,0.067-0.785,0.102c1.615,1.663,3.255,3.302,4.843,4.991c1.197,1.273,3.022,2.897,3.131,4.755 c0.197,3.351-0.01,6.761-0.211,10.105c-0.42,6.988-2.267,13.629-4.08,20.358c-0.666,2.471-1.369,4.933-1.997,7.413 c-0.29,1.146,0.276,2.099,0.69,3.176c1.636,4.254,3.372,8.47,5.101,12.686c0.088,0.213,0.238,0.362,0.482,0.367 c9.114,0.177,18.237,0.676,27.32,1.445c6.727,0.57,13.482,1.284,20.097,2.673c2.162,0.453,9.97,1.604,10.026,4.823 c0.006,0.356,0.313,0.526,0.633,0.482c8.222-1.141,16.719-0.69,24.995-1.28c10.173-0.726,20.647-2.075,30.063-6.196 C687.704,426.072,678.227,400.151,671.309,384.063c-0.254-0.592-1.115-0.081-0.863,0.504c4.144,9.64,8.297,20.091,8.214,30.75 c-0.034,4.297-1.124,8.499-3.545,12.072c-2.866,4.229-7.581,6.627-12.233,8.363c-9.538,3.56-20.001,4.518-30.089,5.115 c-7.239,0.429-14.648,0.096-21.839,1.093c0.211,0.161,0.422,0.321,0.633,0.482c-0.065-3.745-7.018-4.928-9.621-5.536 c-7.352-1.717-14.974-2.417-22.483-3.042c-6.998-0.583-14.015-0.956-21.032-1.208c-1.653-0.059-3.307-0.11-4.961-0.148 c-0.717-0.017,0.283,0.717-0.051-0.097c-0.587-1.435-1.171-2.87-1.753-4.307c-0.97-2.39-1.933-4.782-2.873-7.185 c-0.417-1.064-1.205-2.461-0.978-3.384c1.272-5.171,2.807-10.276,4.097-15.444c1.486-5.947,2.094-11.835,2.241-17.966 c0.043-1.761,0.521-4.49-0.318-6.147c-1.774-3.502-5.271-6.269-7.962-9.039c-0.235-0.242-0.61-0.162-0.785,0.102 c-5.959,8.945-14.319,18.83-25.486,20.867c-10.76,1.962-17.671-7.118-21.902-15.633c-4.006-8.06-7.584-16.424-10.072-25.083 c-1.493-5.198-5.031-17.453,2.221-20.116c0.263-0.097,0.417-0.333,0.35-0.615c-1.251-5.222-2.653-10.409-4.109-15.576 c-0.205,0.205-0.41,0.41-0.615,0.615c8.999,2.858,17.049,0.278,24.133-5.749c-0.262-0.033-0.523-0.067-0.785-0.102 c2.325,4.098,3.729,8.9,5.366,13.298c1.305,3.51,2.586,7.029,3.841,10.557c0.111,0.313,0.585,0.544,0.836,0.221 c7.862-10.124,15.812-21.048,26.236-28.712c4.223-3.104,8.652-5.011,13.929-4.286c3.5,0.48,7.584,1.289,10.999-0.033 c2.81-1.088,3.946-4.061,4.643-6.754c0.246-0.956,0.779-2.07,0-2.724c0.158,0.133,0.298,0.292,0.443,0.439 c0.515,0.522,1.072,0.989,1.665,1.42c6.533,4.75,16.258,2.028,23.052-0.428c-0.211-0.161-0.422-0.321-0.633-0.482 c0.321,3.752,1.322,7.328,4.205,9.917c3.202,2.874,7.804,3.433,11.902,3.84c8.367,0.832,16.417,2.358,23.059,7.915 c4.779,3.999,8.017,9.524,10.355,15.224c2.745,6.689,5.214,13.496,7.636,20.307c4.447,12.504,8.819,25.001,14.073,37.197 C670.699,385.157,671.56,384.647,671.309,384.063z"/><path style="fill:#7db3db" d="M626.209,409.121c0.802-8.762,1.604-17.524,2.406-26.286c-0.327,0.044-0.654,0.089-0.982,0.133 c2.222,8.516,4.443,17.03,6.664,25.546c0.161-0.211,0.321-0.422,0.482-0.633c-3.023,0.247-6.047,0.493-9.07,0.74 c-0.638,0.052-0.644,1.053,0,1c3.023-0.247,6.047-0.493,9.07-0.74c0.323-0.026,0.569-0.299,0.482-0.633 c-2.222-8.516-4.443-17.03-6.664-25.546c-0.15-0.577-0.934-0.405-0.982,0.133c-0.802,8.762-1.604,17.524-2.406,26.286 C625.15,409.764,626.15,409.758,626.209,409.121z"/></g></g><path style="fill:#ffd4d4" d="M514.082,422.821c4.074-3.888,13.883-10.737,16.291-7.221c3.332-2.591,6.293-2.035,6.293-2.035 c2.777-2.962,6.111-3.704,9.441,0.185c3.334,3.887,13.326,12.217,14.994,13.884c1.668,1.665,14.625,1.295,43.689-4.999 c5.922,2.407,6.242,19.168,6.242,19.168c-10.789,0.683-90.262,0.305-90.262,0.305L514.082,422.821z"/><g><path d="M547.588,433.132c-0.13,0-0.26-0.051-0.357-0.15l-0.137-0.14c-0.059-0.06-0.099-0.13-0.121-0.204 c-0.456-0.681-0.711-1.439-0.957-2.176c-0.26-0.518-0.501-1.035-0.741-1.551c-0.245-0.525-0.489-1.049-0.771-1.609 c-0.609-0.942-1.179-2.01-1.729-3.043c-0.433-0.813-0.878-1.647-1.354-2.438c-0.716,0.837-1.484,1.644-2.231,2.429 c-1.071,1.125-2.18,2.288-3.144,3.549l-0.179,0.239c-1.237,1.666-3.541,4.761-6.438,3.083c-0.804-0.425-1.341-1.068-1.579-1.902 c-0.508-1.775,0.517-3.817,0.98-4.613c0.71-1.138,1.492-2.238,2.248-3.304c0.746-1.051,1.517-2.138,2.203-3.234 c0.372-0.56,0.706-1.137,1.04-1.713c0.684-1.181,1.39-2.4,2.362-3.373c0.195-0.195,0.512-0.195,0.707,0 c0.195,0.195,0.195,0.512,0,0.707c-0.88,0.88-1.522,1.99-2.204,3.167c-0.345,0.595-0.689,1.189-1.065,1.754 c-0.693,1.109-1.474,2.209-2.227,3.272c-0.748,1.053-1.521,2.143-2.208,3.241c-0.304,0.522-1.287,2.377-0.875,3.822 c0.163,0.57,0.523,0.996,1.103,1.302c1.984,1.148,3.567-0.673,5.151-2.805l0.183-0.246c1-1.308,2.127-2.49,3.217-3.635 c0.934-0.98,1.817-1.906,2.628-2.906c0.101-0.124,0.264-0.197,0.415-0.184c0.16,0.009,0.307,0.094,0.394,0.229 c0.636,0.989,1.205,2.057,1.756,3.09c0.541,1.016,1.101,2.065,1.715,3.02c0.312,0.615,0.56,1.148,0.809,1.681 c0.237,0.508,0.475,1.018,0.745,1.56c0.011,0.021,0.03,0.074,0.037,0.097c0.269,0.802,0.523,1.56,1.016,2.175 c0.166,0.208,0.141,0.51-0.06,0.687C547.824,433.09,547.706,433.132,547.588,433.132z"/></g><g><path d="M522.09,429.383c-1.183,0-2.368-0.405-3.209-1.433c-1.832-2.558,0.824-5.213,1.697-6.086 c2.976-2.831,6.529-4.821,9.967-6.746c0.24-0.134,0.545-0.05,0.681,0.192c0.135,0.241,0.049,0.546-0.192,0.681 c-3.383,1.895-6.882,3.853-9.757,6.589c-1.989,1.989-2.502,3.506-1.603,4.763c1.108,1.351,3.118,1.229,4.507,0.537 c1.473-0.67,2.85-1.769,4.182-2.831l0.658,0.754c-1.414,1.129-2.84,2.267-4.409,2.979 C523.872,429.151,522.981,429.383,522.09,429.383z"/></g><g><path d="M515.933,429.244c-0.244,0-0.458-0.18-0.494-0.43c-0.039-0.274,0.151-0.526,0.425-0.566 c0.854-0.122,2.156-0.633,2.771-1.247c0.195-0.195,0.512-0.195,0.707,0c0.195,0.195,0.195,0.512,0,0.707 c-0.8,0.799-2.316,1.385-3.338,1.53C515.98,429.242,515.956,429.244,515.933,429.244z"/></g><g><path d="M547.461,372.105c-0.122,0-0.245-0.045-0.341-0.135c-1.717-1.602-3.719-4.806-4.464-7.143 c-2.936-9.185-0.582-18.739,2.398-27.696c0.162-0.486-0.634-1.378-1.16-1.968c-0.205-0.23-0.398-0.448-0.55-0.644 c-0.526-0.892-1.016-1.73-1.502-2.57c-0.139-0.239-0.057-0.545,0.182-0.684c0.237-0.139,0.544-0.06,0.684,0.182 c0.486,0.84,0.974,1.677,1.464,2.514c0.103,0.126,0.28,0.325,0.47,0.536c0.76,0.853,1.707,1.914,1.362,2.95 c-2.928,8.796-5.244,18.163-2.395,27.076c0.614,1.927,2.445,5.085,4.192,6.716c0.202,0.189,0.213,0.505,0.024,0.706 C547.729,372.052,547.595,372.105,547.461,372.105z"/></g><g><path d="M493.454,329.662c-2.184,0-3.91-0.358-4.899-1.01c-0.23-0.152-0.294-0.463-0.143-0.693 c0.152-0.231,0.462-0.294,0.693-0.143c3.001,1.978,13.571,0.732,22.024-5.036c0.229-0.153,0.539-0.097,0.695,0.131 c0.155,0.228,0.097,0.54-0.131,0.695C505.421,327.887,498.309,329.662,493.454,329.662z"/></g><g><path d="M522.649,344.215c-0.234,0-0.444-0.167-0.49-0.406c-0.906-4.736-1.673-7.191-4.317-13.829 c-0.102-0.256,0.023-0.547,0.28-0.649c0.256-0.101,0.547,0.022,0.649,0.28c2.673,6.709,3.448,9.197,4.37,14.011 c0.052,0.271-0.126,0.533-0.398,0.585C522.713,344.212,522.681,344.215,522.649,344.215z"/></g><g><path d="M634.918,408.418c-0.218,0-0.417-0.143-0.481-0.361c-0.78-2.71-1.614-5.818-2.497-9.11 c-1.765-6.58-3.765-14.039-5.881-20.261c-3.051-8.969-5.495-18.103-8.148-28.259c-0.07-0.267,0.09-0.54,0.357-0.609 c0.271-0.074,0.54,0.091,0.609,0.357c2.648,10.135,5.089,19.252,8.129,28.189c2.127,6.253,4.131,13.728,5.9,20.324 c0.882,3.287,1.714,6.392,2.492,9.092c0.076,0.266-0.077,0.543-0.342,0.619C635.01,408.412,634.964,408.418,634.918,408.418z"/></g><g><path d="M604.371,422.58c-0.126,0-0.252-0.048-0.349-0.145c-0.144-0.142-0.224-0.414-0.146-0.601 c0.077-0.188,0.348-0.323,0.551-0.323c0.05,0,0.106,0,0.14-0.016c0.032-0.017,0.067-0.029,0.102-0.039 c0.221-0.055,0.442-0.135,0.672-0.217c0.337-0.12,0.72-0.257,1.153-0.345c0.786-0.112,1.479-0.315,2.21-0.53l0.529-0.153 c0.47-0.082,0.883-0.118,1.281-0.153c0.172-0.015,0.341-0.029,0.505-0.047c-0.027-0.063-0.056-0.126-0.083-0.189 c-0.52-1.188-1.059-2.414-0.808-3.801c0.368-2.379,2.611-4.036,3.559-4.637c2.528-1.565,5.51-2.016,8.394-2.451 c0.554-0.084,1.104-0.167,1.647-0.258c2.352-0.377,4.727-0.503,7.023-0.625c1.145-0.061,2.289-0.121,3.435-0.212 c2.729-0.139,5.539-0.281,8.367-0.281h6.109c0.276,0,0.5,0.224,0.5,0.5c0,0.276-0.224,0.5-0.5,0.5h-6.109 c-2.804,0-5.599,0.142-8.303,0.278c-1.14,0.091-2.293,0.152-3.445,0.213c-2.271,0.121-4.619,0.245-6.915,0.614 c-0.545,0.091-1.101,0.175-1.659,0.259c-2.784,0.421-5.662,0.855-8.013,2.31c-0.827,0.525-2.795,1.968-3.103,3.955 c-0.199,1.1,0.256,2.136,0.737,3.233c0.118,0.271,0.236,0.539,0.344,0.808c0.056,0.139,0.047,0.294-0.024,0.425 c-0.07,0.131-0.196,0.223-0.342,0.252c-0.388,0.077-0.796,0.113-1.229,0.15c-0.373,0.032-0.76,0.065-1.147,0.131l-0.468,0.14 c-0.768,0.226-1.494,0.439-2.322,0.556c-0.335,0.068-0.667,0.188-0.987,0.302c-0.246,0.087-0.481,0.171-0.717,0.232 c-0.114,0.05-0.224,0.074-0.317,0.086C604.56,422.553,604.466,422.58,604.371,422.58z"/></g><g><path d="M619.924,440.351c-0.276,0-0.5-0.224-0.5-0.5c0-3.748-0.597-7.239-1.772-10.376l-0.242-0.684 c-0.584-1.656-1.135-3.221-2.201-4.76c-0.968-1.523-2.779-2.719-4.131-3.456c-0.242-0.132-0.332-0.436-0.199-0.678 c0.131-0.243,0.436-0.333,0.678-0.199c1.455,0.793,3.414,2.093,4.485,3.779c1.132,1.634,1.704,3.26,2.311,4.98l0.238,0.673 c1.183,3.153,1.8,6.654,1.833,10.404c0.001,0.012,0.001,0.024,0.001,0.037v0.278C620.424,440.127,620.2,440.351,619.924,440.351 z"/></g><g><path d="M563.973,422.025c-0.01,0-0.02,0-0.029-0.001c-0.275-0.016-0.486-0.253-0.47-0.528c0.092-1.564,1.771-7.573,2.547-9.386 c0.739-1.727,1.216-3.443,1.72-5.261c0.214-0.77,0.429-1.544,0.666-2.326c1.883-6.189,3.487-11.791,4.047-17.664 c0.369-1.863,0.553-3.698,0.553-5.505c0-1.769-0.526-3.35-1.083-5.023c-0.336-1.064-0.687-2.119-1.038-3.179 c-0.813-2.452-1.655-4.989-2.308-7.597c-1.143-3.623-1.51-7.276-1.863-10.81c-0.144-1.443,0.036-2.884,0.21-4.277 c0.058-0.458,0.115-0.917,0.161-1.376l0.046-0.466c0.176-1.77,0.358-3.599,0.701-5.319c0.285-0.958,0.513-1.871,0.741-2.784 c0.231-0.922,0.47-1.874,0.753-2.816c0.392-1.44,0.876-2.699,1.389-4.03c0.215-0.559,0.435-1.13,0.655-1.734 c0.617-1.955,1.171-3.946,1.757-6.055c0.445-1.603,0.895-3.222,1.381-4.84c0.175-0.886,0.411-1.828,0.639-2.738 c0.228-0.91,0.463-1.852,0.647-2.771c0.118-0.422,0.211-0.787,0.302-1.146c0.223-0.88,0.433-1.71,0.839-2.655 c0.108-0.255,0.403-0.374,0.656-0.262c0.254,0.108,0.371,0.402,0.262,0.656c-0.374,0.872-0.575,1.666-0.787,2.506 c-0.094,0.369-0.189,0.744-0.301,1.136c-0.178,0.904-0.417,1.857-0.647,2.778c-0.225,0.899-0.457,1.83-0.64,2.738 c-0.494,1.657-0.942,3.269-1.386,4.865c-0.563,2.024-1.144,4.117-1.774,6.108c-0.229,0.631-0.451,1.208-0.668,1.771 c-0.504,1.308-0.979,2.543-1.361,3.948c-0.28,0.932-0.516,1.872-0.743,2.782c-0.232,0.928-0.465,1.857-0.743,2.783 c-0.321,1.628-0.501,3.432-0.675,5.177l-0.047,0.467c-0.046,0.467-0.104,0.934-0.163,1.4c-0.175,1.4-0.34,2.723-0.208,4.054 c0.35,3.482,0.71,7.083,1.831,10.638c0.651,2.6,1.487,5.118,2.295,7.554c0.354,1.064,0.705,2.123,1.039,3.183 c0.557,1.671,1.133,3.403,1.133,5.334c0,1.872-0.189,3.773-0.564,5.65c-0.562,5.915-2.18,11.567-4.078,17.81 c-0.235,0.773-0.448,1.541-0.659,2.303c-0.491,1.77-0.999,3.599-1.764,5.387c-0.734,1.713-2.383,7.593-2.469,9.051 C564.456,421.82,564.236,422.025,563.973,422.025z"/></g><g><path d="M590.013,309.753c-1.504,0-2.894-0.805-3.959-2.347c-1.893-2.416-2.327-5.316-2.747-8.12 c-0.086-0.572-0.174-1.156-0.274-1.737c-0.767,1.305-1.546,2.6-2.401,3.881l-0.235,0.356c-1.199,1.817-3.431,5.202-5.951,5.517 c-0.945,0.116-1.819-0.193-2.617-0.922c-2.003-1.859-1.857-4.218-1.717-6.498l0.025-0.426c0.017-0.275,0.258-0.5,0.528-0.47 c0.275,0.016,0.486,0.252,0.47,0.528l-0.025,0.429c-0.132,2.143-0.257,4.166,1.396,5.701c0.576,0.525,1.161,0.743,1.817,0.664 c2.063-0.257,4.208-3.511,5.239-5.074l0.238-0.36c1.088-1.631,2.06-3.295,2.999-4.904c0.102-0.177,0.32-0.306,0.528-0.276 c0.204,0.032,0.387,0.15,0.432,0.352c0.228,1.023,0.385,2.075,0.537,3.092c0.42,2.8,0.816,5.444,2.564,7.676 c0.713,1.031,2.23,2.582,4.558,1.649c1.294-0.462,3.755-1.424,5.894-2.738c1.844-1.137,3.438-2.503,4.735-4.059 c0.178-0.212,0.492-0.239,0.704-0.063c0.212,0.177,0.24,0.492,0.063,0.704c-1.367,1.639-3.042,3.075-4.978,4.27 c-2.218,1.362-4.752,2.353-6.066,2.822C591.176,309.636,590.586,309.753,590.013,309.753z"/></g><g><path d="M581.04,310.713c-0.122,0-0.244-0.011-0.364-0.033c-0.71-0.129-1.221-0.645-1.367-1.377 c-0.235-1.02,0.097-2.026,0.868-2.612c0.749-0.568,1.76-0.626,2.639-0.146c0.203,0.11,0.299,0.342,0.247,0.556 c0.113,0.165,0.2,0.355,0.256,0.563c0.174,0.65,0.03,1.483-0.342,1.98C582.571,310.295,581.805,310.713,581.04,310.713z M581.58,307.22c-0.288,0-0.563,0.09-0.799,0.268c-0.461,0.35-0.647,0.95-0.495,1.605c0.069,0.349,0.261,0.547,0.569,0.603 c0.396,0.073,0.985-0.118,1.297-0.617c0.193-0.262,0.305-0.767,0.2-1.157c-0.063-0.237-0.191-0.394-0.39-0.479 c-0.106-0.046-0.188-0.123-0.239-0.217C581.676,307.222,581.628,307.22,581.58,307.22z"/></g><g><path d="M576.451,336.996c-0.399,0-0.889-0.147-1.425-0.621c-0.516-0.514-0.759-1.189-0.708-1.922 c0.063-0.895,0.547-1.764,1.294-2.324c0.755-0.564,1.271-0.361,1.923-0.1c0.088,0.035,0.166,0.095,0.227,0.169 c0.485,0.13,0.818,0.558,0.922,1.188c0.185,1.13-0.385,2.823-1.423,3.398C577.072,336.888,576.795,336.996,576.451,336.996z M576.56,332.768c-0.115,0-0.203,0.053-0.349,0.162c-0.51,0.383-0.854,0.993-0.896,1.594c-0.023,0.311,0.028,0.758,0.394,1.123 c0.595,0.522,0.95,0.328,1.065,0.262c0.634-0.35,1.043-1.611,0.92-2.36c-0.014-0.084-0.069-0.361-0.208-0.387 c-0.132-0.024-0.243-0.099-0.316-0.2c-0.005-0.002-0.008-0.003-0.008-0.003C576.851,332.833,576.688,332.768,576.56,332.768z"/></g><g><path d="M574.513,364.422c-0.375,0-0.858-0.158-1.348-0.753c-0.439-0.548-0.658-1.562-0.526-2.416 c0.097-0.624,0.364-1.099,0.773-1.372c0.145-0.096,0.323-0.108,0.475-0.044c0.023-0.266,0.235-0.489,0.523-0.456 c1.017,0.049,1.745,0.686,1.948,1.702c0.254,1.27-0.335,2.769-1.26,3.207C574.974,364.35,574.768,364.422,574.513,364.422z M574.188,360.34c-0.013,0.146-0.089,0.285-0.221,0.373c-0.167,0.111-0.288,0.357-0.34,0.693 c-0.1,0.642,0.086,1.348,0.314,1.633c0.271,0.329,0.514,0.45,0.727,0.348c0.454-0.216,0.879-1.251,0.708-2.107 c-0.116-0.578-0.448-0.872-1.017-0.9C574.299,360.376,574.241,360.362,574.188,360.34z"/></g><g><path d="M576.194,404.107c-0.294,0-0.531-0.094-0.713-0.21c-0.912-0.579-1.104-2.212-0.892-3.168 c0.034-0.154,0.137-0.276,0.269-0.341c0.012-0.17,0.109-0.33,0.272-0.413c0.092-0.046,0.171-0.148,0.254-0.257 c0.062-0.08,0.119-0.151,0.175-0.207c0.038-0.038,0.081-0.069,0.129-0.093c0.675-0.337,1.441-0.153,2.105,0.509 c0.903,1.082,0.744,2.774-0.311,3.654C576.974,403.974,576.544,404.107,576.194,404.107z M575.577,400.871 c-0.002,0.024-0.005,0.05-0.011,0.075c-0.156,0.703,0.025,1.837,0.452,2.107c0.228,0.151,0.584-0.056,0.839-0.252 c0.607-0.508,0.712-1.583,0.197-2.2c-0.195-0.193-0.517-0.427-0.842-0.319c-0.012,0.015-0.023,0.03-0.035,0.046 c-0.12,0.156-0.301,0.391-0.594,0.54C575.581,400.869,575.579,400.87,575.577,400.871z"/></g><path style="fill:#ffd4d4" d="M491.129,281.855c-1.943-2.13-6.85-4.721-11.199-6.851c-3.69-1.806-8.609,1.573-3.334,7.22 c5.277,5.645,15.182,8.422,15.182,8.422"/><g><path d="M491.777,291.147c-0.044,0-0.09-0.006-0.135-0.019c-0.41-0.115-10.101-2.88-15.412-8.561 c-3.498-3.744-2.406-6.134-1.774-6.987c1.18-1.595,3.629-2.032,5.693-1.023c4.205,2.059,9.294,4.711,11.349,6.963 c0.187,0.204,0.172,0.521-0.032,0.706c-0.203,0.188-0.52,0.173-0.706-0.032c-1.963-2.151-7.247-4.876-11.05-6.738 c-1.613-0.789-3.566-0.472-4.45,0.72c-1.006,1.358-0.369,3.493,1.701,5.709c5.122,5.48,14.854,8.255,14.951,8.282 c0.266,0.074,0.421,0.351,0.347,0.616C492.197,291.002,491.996,291.147,491.777,291.147z"/></g><g><path style="fill:#f2ac30" d="M561.959,432.354h-39.475L506.6,385.96c-1.387-4.045-6.02-7.355-10.295-7.355h-67.41 c-4.275,0-6.641,3.311-5.256,7.355l16.363,47.793c1.791,4.64,2,8.459,6.652,8.459h115.305c2.721,0,4.928-2.207,4.928-4.93 C566.887,434.56,564.68,432.354,561.959,432.354z"/><g><path style="fill:#f2ac30" d="M561.959,431.854c-12.259,0-24.518,0-36.777,0c-0.768,0-1.535,0-2.304,0 c-0.772,0,0.196,0.683-0.015,0.065c-0.602-1.756-1.202-3.512-1.804-5.268c-2.439-7.125-4.879-14.25-7.318-21.375 c-2.048-5.98-4.095-11.961-6.143-17.94c-1.794-5.24-5.927-9.232-11.769-9.232c-12.484,0-24.97,0-37.454,0 c-7.23,0-14.459,0-21.689,0c-3.391,0-7.951-0.7-11.127,0.779c-5.1,2.377-1.808,8.948-0.533,12.672 c2.426,7.086,4.852,14.172,7.277,21.258c2.147,6.27,4.293,12.538,6.439,18.808c1.473,4.3,2.335,11.091,7.982,11.091 c8.447,0,16.893,0,25.34,0c28.474,0,56.946,0,85.42,0c1.482,0,2.965,0,4.448,0 C569.004,442.712,568.893,432.321,561.959,431.854c-0.644-0.043-0.64,0.957,0,1c6.106,0.411,5.375,8.857-0.477,8.857 c-1.13,0-2.26,0-3.391,0c-4.904,0-9.81,0-14.715,0c-15.517,0-31.033,0-46.55,0c-13.847,0-27.692,0-41.539,0 c-2.817,0-5.635,0-8.452,0c-4.438,0-5.196-4.718-6.36-8.116c-0.452-1.321-0.904-2.643-1.357-3.964 c-4.604-13.45-9.21-26.901-13.815-40.352c-0.394-1.151-0.788-2.302-1.182-3.453c-1.493-4.36,1.79-6.723,5.691-6.723 c4.985,0,9.972,0,14.958,0c15.009,0,30.018,0,45.026,0c5.714,0,11.086-0.561,15.098,4.675c1.107,1.445,1.589,3.382,2.172,5.084 c0.946,2.765,1.893,5.529,2.84,8.295c4.031,11.776,8.063,23.553,12.096,35.329c0.073,0.213,0.25,0.367,0.482,0.367 c13.158,0,26.316,0,39.475,0C562.604,432.854,562.604,431.854,561.959,431.854z"/></g></g><g><path d="M519.004,434.544h-78.4c-0.276,0-0.5-0.224-0.5-0.5c0-0.276,0.224-0.5,0.5-0.5h78.4c0.276,0,0.5,0.224,0.5,0.5 C519.504,434.32,519.28,434.544,519.004,434.544z"/></g><g><path d="M471.953,417.993c-3.422,0-7.186-3.393-8.391-7.564c-0.691-2.39-0.44-4.622,0.69-6.125 c0.831-1.105,2.088-1.714,3.541-1.714c3.424,0,7.186,3.393,8.389,7.564c0.691,2.389,0.44,4.621-0.69,6.125 C474.661,417.385,473.404,417.993,471.953,417.993z M467.793,403.591c-1.148,0-2.096,0.455-2.742,1.315 c-0.939,1.249-1.131,3.161-0.527,5.247c1.089,3.772,4.422,6.841,7.43,6.841c1.146,0,2.093-0.455,2.739-1.314 c0.939-1.25,1.132-3.162,0.528-5.247C474.134,406.659,470.802,403.591,467.793,403.591z"/></g><g><path style="fill:#d4336e" d="M561.113,243.436c-2.367-2.88-5.891-5.381-7.316-4.692c-1.426,0.686-1.732,2.86-0.73,3.311 c1.002,0.45,1.369-1.384,4.67,0.056C560.629,243.369,561.352,243.957,561.113,243.436z"/><path style="fill:#d4336e" d="M561.096,244.126L561.096,244.126c-0.233,0-0.477-0.118-1.197-0.466 c-0.533-0.258-1.301-0.629-2.361-1.091c-0.792-0.345-1.477-0.521-2.033-0.521c-0.551,0-0.898,0.163-1.232,0.32 c-0.415,0.196-0.915,0.364-1.41,0.142c-0.542-0.244-0.872-0.828-0.881-1.562c-0.012-0.902,0.483-2.119,1.6-2.655 c0.227-0.109,0.488-0.165,0.779-0.165c1.974,0,5.151,2.571,7.141,4.99c0.027,0.033,0.05,0.07,0.068,0.109 c0.042,0.094,0.173,0.379,0,0.648C561.477,244.018,561.266,244.126,561.096,244.126z M555.504,241.047 c0.705,0,1.501,0.197,2.433,0.604c0.581,0.253,1.076,0.48,1.493,0.676c-1.858-1.855-3.932-3.199-5.07-3.199 c-0.139,0-0.255,0.022-0.345,0.066c-0.69,0.331-1.043,1.127-1.034,1.742c0.001,0.125,0.027,0.544,0.291,0.663 c0.059,0.026,0.096,0.029,0.119,0.029c0.107,0,0.269-0.076,0.455-0.164C554.219,241.288,554.729,241.047,555.504,241.047z"/></g><g><path d="M609.539,216.129c-0.178,0-0.35-0.095-0.44-0.263c-0.883-1.639-1.771-3.407-2.29-5.225 c-0.777-2.174-1.145-3.975-1.145-5.637c0-1.335,0.578-2.458,1.508-2.929c0.467-0.238,1.435-0.5,2.663,0.4 c4.341,3.328,2.087,10.266,0.916,13.095c-0.105,0.255-0.396,0.377-0.653,0.271c-0.031-0.013-0.06-0.028-0.087-0.046 c-0.04,0.114-0.12,0.213-0.234,0.275C609.701,216.11,609.619,216.129,609.539,216.129z M608.13,202.847 c-0.168,0-0.339,0.036-0.506,0.121c-0.583,0.295-0.96,1.095-0.96,2.037c0,1.544,0.349,3.238,1.096,5.332 c0.478,1.666,1.275,3.288,2.086,4.807c1.087-2.643,3.15-8.983-0.611-11.867C608.943,203.062,608.545,202.847,608.13,202.847z"/></g><g><path d="M620.568,220.39c-1.753,0-3.553-0.737-5.153-1.393l-0.687-0.279c-1.756-0.753-3.659-1.514-5.5-2.25 c-0.223-0.089-0.351-0.324-0.306-0.559c0.046-0.235,0.252-0.405,0.491-0.405h0.016c0.037-0.144,0.138-0.269,0.284-0.333 l1.015-0.451c1.676-0.751,3.409-1.528,5.327-1.954c2.597-0.518,6.151-0.141,7.672,2.623c0.608,1.149,0.64,2.363,0.089,3.337 c-0.553,0.98-1.601,1.583-2.875,1.653C620.817,220.386,620.693,220.39,620.568,220.39z M610.519,215.907 c1.554,0.623,3.127,1.259,4.593,1.887l0.683,0.277c1.694,0.693,3.446,1.415,5.089,1.308c0.93-0.052,1.681-0.47,2.063-1.146 c0.385-0.681,0.35-1.523-0.099-2.371c-1.257-2.282-4.329-2.569-6.586-2.119c-1.808,0.402-3.494,1.158-5.124,1.888 L610.519,215.907z"/></g><g><path d="M615.414,221.004c-0.107,0-0.212-0.034-0.3-0.1c-0.451-0.338-0.88-0.727-1.294-1.102 c-0.529-0.48-1.076-0.977-1.684-1.381c-0.783-0.469-1.469-0.988-2.194-1.538c-0.421-0.318-0.851-0.643-1.315-0.969 c-1.922-1.537-3.57-3.186-5.317-4.931c-0.195-0.195-0.195-0.512,0-0.707c0.195-0.195,0.512-0.195,0.707,0 c1.726,1.726,3.355,3.355,5.209,4.838c0.449,0.314,0.889,0.646,1.319,0.972c0.704,0.532,1.368,1.036,2.125,1.49 c0.69,0.459,1.265,0.981,1.821,1.485c0.272,0.248,0.535,0.486,0.801,0.708c0.297-0.072,0.622,0.167,0.621,0.485v0.25 c0,0.189-0.107,0.362-0.276,0.447C615.567,220.986,615.49,221.004,615.414,221.004z"/></g></g><g><g><path style="fill:#ffd4d4" d="M279.698,442.418h-26.391c-0.235,0-0.439-0.164-0.489-0.395l-12.44-57.709 c-0.373-1.732-0.124-3.248,0.7-4.269c1.053-1.307,2.936-1.678,5.096-0.982l69.053,22.214c1.939,0.625,3.181,1.779,3.497,3.25 c0.316,1.471-0.341,3.032-1.851,4.398l-36.841,33.363C279.941,442.372,279.822,442.418,279.698,442.418z M253.711,441.418 h25.794l36.698-33.234c1.233-1.115,1.782-2.34,1.544-3.445c-0.238-1.107-1.242-1.999-2.827-2.51l-69.053-22.214 c-1.74-0.559-3.224-0.313-4.011,0.659c-0.631,0.781-0.809,2-0.501,3.43L253.711,441.418z"/></g><g><path style="fill:#f2ac30" d="M267.176,109.283c-0.043,0-0.086-0.001-0.129-0.001c-3.273-0.058-6.364-2.316-8.481-6.197 c-2.773-5.086-2.495-11.89,0.387-17.792c-3.58-0.348-7.288,0.119-10.466,1.296c-7.558,2.799-11.202,8.984-9.747,16.546 c0.052,0.271-0.125,0.533-0.397,0.585c-0.271,0.05-0.533-0.126-0.585-0.397c-1.555-8.083,2.326-14.689,10.382-17.672 c3.424-1.268,7.439-1.738,11.299-1.299c0.848-1.557,1.882-3.039,3.094-4.395c6.024-6.741,14.616-8.516,23.567-4.866 c0.256,0.104,0.379,0.396,0.274,0.651c-0.105,0.257-0.398,0.378-0.651,0.274c-8.539-3.478-16.719-1.801-22.445,4.607 c-1.074,1.202-2.002,2.505-2.779,3.873c5.135,0.818,9.867,3.299,12.395,7.722c2.705,4.733,3.036,9.509,0.907,13.103 C272.328,107.81,269.858,109.283,267.176,109.283z M260.003,85.419c-2.892,5.687-3.231,12.289-0.56,17.188 c1.968,3.608,4.675,5.624,7.621,5.676c2.328,0.032,4.564-1.255,5.876-3.47c1.94-3.276,1.607-7.685-0.915-12.097 C269.599,88.469,264.988,86.132,260.003,85.419z"/></g><g><path style="fill:#ffd4d4" d="M73.976,254.607c-2.015,0-4.115-0.517-6.241-1.558c-0.248-0.122-0.351-0.421-0.229-0.669 c0.122-0.249,0.422-0.349,0.669-0.23c4.985,2.444,9.808,1.771,13.581-1.891c1.303-1.265,2.391-2.799,3.234-4.475 c-3.419-0.719-6.584-2.704-8.258-6.227c-2.339-4.924-1.541-9.015-0.015-11.201c1.15-1.646,2.8-2.499,4.54-2.339 c2.207,0.204,4.18,1.987,5.556,5.023c1.827,4.033,1.55,9.382-0.377,13.97c1.91,0.219,3.854,0.035,5.589-0.498 c4.571-1.404,9.036-5.646,7.855-13.341c-0.042-0.273,0.145-0.528,0.418-0.57c0.27-0.045,0.528,0.146,0.57,0.419 c1.277,8.325-3.58,12.922-8.55,14.449c-1.955,0.601-4.157,0.785-6.311,0.492c-0.909,1.885-2.105,3.609-3.556,5.017 C79.969,253.388,77.072,254.607,73.976,254.607z M80.849,226.999c-1.253,0-2.447,0.69-3.313,1.931 c-1.366,1.955-2.058,5.662,0.098,10.199c1.563,3.289,4.564,5.109,7.791,5.728c1.917-4.382,2.227-9.539,0.476-13.403 c-1.221-2.694-2.903-4.271-4.736-4.44C81.06,227.004,80.954,226.999,80.849,226.999z"/></g><g><path style="fill:#f2ac30" d="M679.559,338.663c-0.077,0-0.155-0.018-0.229-0.055c-6.842-3.51-9.469-10.168-7.025-17.813 c1.035-3.238,2.991-6.454,5.526-9.035c-0.652-1.512-1.144-3.117-1.441-4.779c-1.493-8.31,2.145-15.648,9.979-20.134 c0.235-0.137,0.544-0.057,0.682,0.186c0.138,0.239,0.055,0.545-0.186,0.682c-7.445,4.264-10.905,11.221-9.491,19.09 c0.262,1.458,0.679,2.871,1.226,4.21c3.551-3.286,8.085-5.322,12.777-4.64c5.041,0.735,8.746,3.243,10.167,6.882 c1,2.562,0.635,5.277-0.977,7.265c-1.93,2.379-5.371,3.352-9.451,2.678c-5.322-0.884-10.155-4.983-12.842-10.476 c-2.291,2.418-4.062,5.387-5.017,8.377c-2.281,7.139,0.16,13.351,6.53,16.617c0.245,0.126,0.343,0.428,0.217,0.674 C679.915,338.564,679.74,338.663,679.559,338.663z M679.019,311.973c2.511,5.368,7.149,9.392,12.26,10.24 c3.771,0.628,6.789-0.2,8.511-2.321c1.382-1.704,1.69-4.049,0.822-6.272c-1.286-3.293-4.705-5.573-9.38-6.255 C686.737,306.71,682.396,308.74,679.019,311.973z"/></g><g><path style="fill:#ffd4d4" d="M620.188,152.548c-1.871,0-3.61-0.917-4.653-2.453l-10.023-14.756 c-0.838-1.234-1.144-2.727-0.862-4.203c0.281-1.476,1.116-2.751,2.351-3.589l14.758-10.025c0.928-0.63,2.013-0.962,3.138-0.962 c1.871,0,3.611,0.917,4.655,2.455l10.023,14.755c1.735,2.559,1.067,6.055-1.49,7.794l-14.754,10.02 C622.4,152.214,621.315,152.548,620.188,152.548z M624.896,117.56c-0.924,0-1.814,0.273-2.575,0.789l-14.758,10.025 c-1.014,0.688-1.699,1.735-1.932,2.949c-0.231,1.213,0.021,2.441,0.709,3.454l10.023,14.756 c0.856,1.261,2.286,2.014,3.825,2.014c0.925,0,1.816-0.274,2.579-0.792l14.754-10.021c2.103-1.429,2.651-4.302,1.225-6.405 l-10.023-14.755C627.866,118.313,626.435,117.56,624.896,117.56z"/></g><g><path style="fill:#7db3db" d="M566.592,106.27c-3.701,0-6.713-3.011-6.713-6.711c0-3.702,3.012-6.714,6.713-6.714 s6.713,3.012,6.713,6.714C573.305,103.259,570.293,106.27,566.592,106.27z M566.592,93.845c-3.15,0-5.713,2.563-5.713,5.714 c0,3.149,2.563,5.711,5.713,5.711s5.713-2.562,5.713-5.711C572.305,96.408,569.742,93.845,566.592,93.845z"/></g><g><circle style="fill:#7db3db" cx="110.742" cy="167.789" r="4.8"/><path style="fill:#7db3db" d="M126.464,158.163c0,2.649-2.148,4.8-4.8,4.8c-2.65,0-4.799-2.15-4.799-4.8 c0-2.652,2.148-4.801,4.799-4.801C124.316,153.362,126.464,155.511,126.464,158.163z"/><path style="fill:#7db3db" d="M128.316,172.233c0,2.65-2.148,4.797-4.801,4.797c-2.65,0-4.8-2.146-4.8-4.797 c0-2.653,2.149-4.801,4.8-4.801C126.167,167.433,128.316,169.58,128.316,172.233z"/></g><g><path style="fill:#7db3db" d="M412.159,426.545c-2.058,0-3.946-1.205-4.811-3.07c-0.596-1.285-0.655-2.725-0.168-4.054 c0.487-1.33,1.463-2.39,2.747-2.985c0.704-0.326,1.453-0.492,2.225-0.492c2.058,0,3.946,1.205,4.811,3.07 c0.596,1.285,0.656,2.724,0.169,4.054c-0.487,1.329-1.463,2.39-2.748,2.985C413.68,426.379,412.931,426.545,412.159,426.545z M412.151,416.943c-0.625,0-1.233,0.135-1.805,0.399c-1.041,0.483-1.833,1.343-2.228,2.422 c-0.396,1.079-0.347,2.247,0.136,3.289c0.703,1.514,2.235,2.491,3.905,2.491c0.625,0,1.232-0.135,1.805-0.399 c1.042-0.483,1.834-1.344,2.228-2.423c0.396-1.078,0.347-2.246-0.136-3.288C415.353,417.921,413.821,416.943,412.151,416.943z"/></g><g><path style="fill:#7db3db" d="M398.832,420.685c-2.059,0-3.947-1.205-4.813-3.07c-1.229-2.652-0.073-5.81,2.579-7.039 c0.704-0.327,1.453-0.492,2.224-0.492c2.059,0,3.947,1.205,4.813,3.07c1.228,2.653,0.071,5.811-2.579,7.039 C400.352,420.521,399.602,420.685,398.832,420.685z M398.822,411.084c-0.625,0-1.232,0.134-1.804,0.399 c-2.151,0.997-3.09,3.56-2.093,5.711c0.703,1.514,2.236,2.491,3.906,2.491c0.625,0,1.231-0.134,1.804-0.399 c2.15-0.997,3.088-3.559,2.092-5.711C402.025,412.061,400.492,411.084,398.822,411.084z"/></g><g><path style="fill:#7db3db" d="M410.811,413.087c-2.056,0-3.942-1.205-4.807-3.071c-1.228-2.65-0.072-5.808,2.577-7.037 c0.706-0.327,1.455-0.493,2.227-0.493c2.057,0,3.945,1.205,4.81,3.07c0.596,1.285,0.656,2.725,0.169,4.054 s-1.463,2.389-2.748,2.983C412.334,412.92,411.584,413.087,410.811,413.087z M410.809,403.485c-0.625,0-1.232,0.135-1.806,0.4 c-2.149,0.998-3.087,3.56-2.091,5.71c0.701,1.514,2.232,2.491,3.899,2.491c0.626,0,1.234-0.135,1.808-0.401 c1.043-0.482,1.835-1.342,2.23-2.421c0.395-1.078,0.346-2.245-0.137-3.288C414.01,404.463,412.477,403.485,410.809,403.485z"/></g><g><path style="fill:#495edb" d="M666.368,254.233c-2.06,0-3.948-1.206-4.813-3.072c-0.595-1.283-0.655-2.723-0.168-4.052 c0.486-1.33,1.462-2.39,2.746-2.985c0.705-0.327,1.453-0.492,2.225-0.492c2.058,0,3.946,1.205,4.813,3.069 c1.227,2.653,0.07,5.811-2.579,7.039C667.889,254.067,667.14,254.233,666.368,254.233z M666.358,244.632 c-0.625,0-1.232,0.134-1.805,0.4c-1.041,0.482-1.832,1.342-2.228,2.421c-0.395,1.078-0.346,2.246,0.137,3.288 c0.701,1.514,2.234,2.492,3.905,2.492c0.625,0,1.232-0.135,1.805-0.4c2.149-0.996,3.088-3.559,2.092-5.711 C669.561,245.609,668.028,244.632,666.358,244.632z"/></g><g><path style="fill:#495edb" d="M653.039,248.374c-2.059,0-3.947-1.205-4.812-3.071c-0.596-1.284-0.656-2.723-0.169-4.053 c0.487-1.329,1.464-2.389,2.749-2.985c0.704-0.327,1.453-0.493,2.225-0.493c2.057,0,3.945,1.205,4.812,3.07 c1.228,2.653,0.071,5.811-2.579,7.039C654.56,248.208,653.811,248.374,653.039,248.374z M653.032,238.773 c-0.625,0-1.232,0.134-1.804,0.4c-1.043,0.483-1.835,1.343-2.23,2.422c-0.396,1.078-0.347,2.246,0.137,3.288 c0.702,1.515,2.234,2.492,3.904,2.492c0.626,0,1.233-0.135,1.806-0.399c2.15-0.997,3.089-3.559,2.092-5.711 C656.233,239.751,654.701,238.773,653.032,238.773z"/></g><g><path style="fill:#495edb" d="M665.021,240.775c-2.056,0-3.943-1.205-4.808-3.07c-1.229-2.65-0.073-5.808,2.576-7.038 c0.706-0.327,1.456-0.493,2.228-0.493c2.059,0,3.946,1.205,4.81,3.07c0.596,1.284,0.656,2.724,0.17,4.053 c-0.487,1.329-1.463,2.389-2.748,2.983C666.543,240.608,665.793,240.775,665.021,240.775z M665.017,231.174 c-0.626,0-1.233,0.135-1.807,0.4c-2.15,0.998-3.088,3.56-2.091,5.71c0.702,1.513,2.233,2.491,3.901,2.491 c0.626,0,1.234-0.135,1.808-0.401c1.043-0.483,1.835-1.342,2.229-2.42c0.396-1.078,0.346-2.246-0.138-3.288 C668.219,232.151,666.686,231.174,665.017,231.174z"/></g></g></g></g></svg>