<svg width="759" height="206" viewBox="0 0 759 206" fill="none" xmlns="http://www.w3.org/2000/svg">
<path d="M49.4529 47.7801C43.2927 0.176643 126.466 -15.4825 130.162 47.7801M49.1263 47.7796C15.0204 48.6428 -1.04119 80.6437 9.37215 106.251C16.0239 122.608 35.6191 126.701 53.0292 126.701H62.6812M89.7896 129.832L103.344 117.932M62.6812 90.3719L89.1735 116.053M89.7896 85.9874L116.282 62.1859M6.5 199.358H89.1735M172 199.358H89.1735M89.1735 48.406V199.358M130.453 48.5923C164.559 49.4555 180.62 81.4564 170.207 107.064C163.555 123.421 143.96 127.513 126.55 127.513H116.898" stroke="#323C39" stroke-width="12" stroke-linecap="round"/>
<path d="M661 152C661 149.791 662.791 148 665 148H755C757.209 148 759 149.791 759 152V180C759 182.209 757.209 184 755 184H665C662.791 184 661 182.209 661 180V152Z" fill="#323C39"/>
<path d="M689.139 175.055C688.378 175.671 687.387 176.15 686.167 176.49C684.947 176.83 683.445 177 681.662 177C679.889 177 678.002 176.835 676 176.506V155.494C678.023 155.165 679.775 155 681.256 155C682.747 155 683.967 155.143 684.916 155.43C685.875 155.717 686.657 156.105 687.262 156.594C688.451 157.54 689.045 158.768 689.045 160.277C689.045 161.775 688.508 163.019 687.434 164.007C688.706 164.411 689.691 165.176 690.39 166.303C691.026 167.313 691.344 168.434 691.344 169.667C691.344 170.889 691.167 171.936 690.812 172.807C690.468 173.679 689.91 174.428 689.139 175.055ZM680.145 163.417C680.583 163.492 681.13 163.529 681.787 163.529C682.444 163.529 682.981 163.444 683.398 163.274C683.826 163.093 684.154 162.87 684.384 162.604C684.759 162.169 684.947 161.563 684.947 160.787C684.947 159.161 684.008 158.348 682.131 158.348C681.339 158.348 680.677 158.38 680.145 158.443V163.417ZM682.46 166.829C681.584 166.829 680.812 166.887 680.145 167.004V173.27C680.875 173.461 681.641 173.557 682.444 173.557C683.247 173.557 683.951 173.461 684.556 173.27C685.171 173.068 685.687 172.797 686.104 172.457C686.949 171.755 687.371 170.862 687.371 169.778C687.371 167.812 685.734 166.829 682.46 166.829Z" fill="white"/>
<path d="M705.523 172.775C706.169 172.775 706.618 172.712 706.868 172.584L706.931 172.6L706.774 176.601H695.059V155.287C695.34 155.308 695.653 155.324 695.997 155.335L697.092 155.367C697.822 155.388 698.615 155.399 699.47 155.399C701.858 155.399 704.219 155.356 706.555 155.271C706.44 156.206 706.383 157.455 706.383 159.017C706.383 159.187 706.394 159.315 706.414 159.4L706.383 159.448C705.841 159.288 705.069 159.209 704.068 159.209H699.141V163.274H702.848C703.995 163.274 704.683 163.242 704.913 163.178L704.96 167.116C704.459 167.063 703.813 167.036 703.02 167.036H699.141V172.775H705.523Z" fill="white"/>
<path d="M718.935 176.697C718.434 176.633 717.147 176.601 715.072 176.601H714.571V158.97H711.474C710.556 158.97 710.014 159.017 709.847 159.113C709.681 159.209 709.55 159.294 709.456 159.368L709.409 159.352V155.271L709.456 155.223C709.8 155.34 710.728 155.399 712.24 155.399H722.048C722.965 155.399 723.507 155.351 723.674 155.255C723.841 155.159 723.972 155.074 724.065 155L724.112 155.016V159.097L724.065 159.145C723.721 159.028 722.793 158.97 721.281 158.97H718.935V176.697Z" fill="white"/>
<path d="M729.313 176.729C728.416 176.644 727.368 176.601 726.169 176.601H724.933L731.737 157.168C732.04 156.297 732.191 155.792 732.191 155.654C732.191 155.505 732.186 155.414 732.175 155.383L732.191 155.351C732.869 155.383 733.588 155.399 734.349 155.399C734.975 155.399 735.726 155.388 736.602 155.367L736.617 155.399C736.596 155.441 736.586 155.5 736.586 155.574C736.586 155.776 736.742 156.313 737.055 157.184L744 176.649C743.791 176.639 743.546 176.633 743.265 176.633C743.265 176.633 742.994 176.623 742.451 176.601C742.191 176.601 741.956 176.601 741.748 176.601H739.323L737.853 172.01H730.783L729.313 176.729ZM736.633 168.184L734.271 160.771L731.972 168.184H736.633Z" fill="white"/>
<path d="M240.662 66.058C242.853 66.2343 244.673 66.3225 246.122 66.3225H250.522C252.007 66.3225 253.562 66.1814 255.188 65.8993V109.646C255.188 118.322 252.555 125.287 247.289 130.541C242.305 135.514 236.05 138 228.522 138C220.287 138 213.625 135.866 208.535 131.599C202.845 126.803 200 119.891 200 110.863V66.058C202.933 66.2343 205.69 66.3225 208.27 66.3225C210.886 66.3225 213.041 66.1814 214.738 65.8993V111.551C214.738 115.994 216.099 119.45 218.82 121.919C221.365 124.176 224.546 125.304 228.363 125.304C234.017 125.304 237.781 122.413 239.655 116.629C240.326 114.548 240.662 111.974 240.662 108.906V66.058Z" fill="#323C39"/>
<path d="M296.882 109.329C295.822 109.4 294.691 109.435 293.489 109.435C292.288 109.435 290.503 109.347 288.135 109.17V136.678H274.086V65.9522C279.034 65.3174 285.113 65 292.323 65C302.148 65 309.464 66.8162 314.271 70.4486C319.113 74.0457 321.534 79.6176 321.534 87.1645C321.534 93.0186 319.325 98.0263 314.907 102.188C313.458 103.528 311.797 104.692 309.924 105.679L320.739 128.425C322.859 133.116 324.485 135.902 325.616 136.783L325.351 137.048C321.923 136.484 316.533 136.501 309.182 137.101L296.882 109.329ZM293.33 77.4841C291.528 77.4841 289.796 77.5722 288.135 77.7486V97.9558C289.867 98.2027 291.899 98.3261 294.232 98.3261C296.564 98.3261 298.526 98.1321 300.116 97.7442C301.707 97.321 303.085 96.6862 304.251 95.8399C306.761 93.9708 308.015 91.1671 308.015 87.429C308.015 83.6908 306.708 81.0635 304.092 79.5471C301.654 78.1717 298.066 77.4841 293.33 77.4841Z" fill="#323C39"/>
<path d="M396.574 94.2529C395.903 95.4519 395.567 98.3261 395.567 102.875V119.274C395.567 124.246 392.987 128.566 387.827 132.234C382.49 136.078 375.952 138 368.212 138C357.467 138 348.897 134.632 342.5 127.896C336.315 121.478 333.222 113.296 333.222 103.351C333.222 92.7717 336.368 83.9553 342.659 76.9022C349.692 68.9674 359.376 65 371.711 65C379.945 65 386.466 66.587 391.273 69.7609L390.425 85.3659L390.001 85.4717C388.764 83.3205 386.325 81.5572 382.685 80.1819C379.221 78.8771 375.581 78.2246 371.764 78.2246C367.982 78.2246 364.66 78.8242 361.797 80.0232C358.97 81.2222 356.566 82.9326 354.587 85.1543C350.417 89.7036 348.331 95.7164 348.331 103.193C348.331 109.717 350.169 114.954 353.845 118.904C357.521 122.818 362.256 124.775 368.053 124.775C374.45 124.775 378.762 123.118 380.988 119.803C381.695 118.745 382.048 117.546 382.048 116.206V107.425H375.21C371.534 107.425 369.537 107.742 369.219 108.377L369.06 108.324L368.583 94.5174C369.572 94.7995 373.584 94.9406 380.617 94.9406H386.873C390.76 94.9406 393.941 94.6761 396.415 94.1471L396.574 94.2529Z" fill="#323C39"/>
<path d="M434.664 109.329C433.604 109.4 432.473 109.435 431.271 109.435C430.069 109.435 428.284 109.347 425.917 109.17V136.678H411.868V65.9522C416.816 65.3174 422.895 65 430.105 65C439.93 65 447.246 66.8162 452.052 70.4486C456.894 74.0457 459.315 79.6176 459.315 87.1645C459.315 93.0186 457.106 98.0263 452.689 102.188C451.24 103.528 449.578 104.692 447.705 105.679L458.52 128.425C460.641 133.116 462.267 135.902 463.397 136.783L463.132 137.048C459.704 136.484 454.314 136.501 446.963 137.101L434.664 109.329ZM431.112 77.4841C429.309 77.4841 427.578 77.5722 425.917 77.7486V97.9558C427.648 98.2027 429.681 98.3261 432.013 98.3261C434.346 98.3261 436.307 98.1321 437.898 97.7442C439.488 97.321 440.867 96.6862 442.033 95.8399C444.542 93.9708 445.797 91.1671 445.797 87.429C445.797 83.6908 444.489 81.0635 441.874 79.5471C439.435 78.1717 435.848 77.4841 431.112 77.4841Z" fill="#323C39"/>
<path d="M482.031 128.32C478.815 125.251 476.27 121.566 474.397 117.264C472.559 112.961 471.64 108.253 471.64 103.14C471.64 97.9911 472.506 93.1244 474.238 88.5399C475.97 83.9553 478.444 79.9174 481.66 76.4261C484.876 72.9348 488.764 70.1664 493.323 68.121C497.882 66.0403 502.989 65 508.644 65C518.399 65 526.616 68.0681 533.296 74.2043C540.435 80.7638 544.004 89.6155 544.004 100.759C544.004 111.551 540.329 120.526 532.977 127.685C528.454 132.093 523.064 135.126 516.808 136.783C513.733 137.594 510.128 138 505.993 138C501.894 138 497.67 137.154 493.323 135.461C489.011 133.768 485.247 131.388 482.031 128.32ZM486.378 102.399C486.378 105.679 486.926 108.694 488.021 111.445C489.117 114.196 490.637 116.558 492.581 118.533C496.716 122.695 502.035 124.775 508.538 124.775C514.723 124.775 519.689 122.783 523.435 118.798C527.252 114.672 529.16 109.047 529.16 101.923C529.16 95.2227 527.34 89.6331 523.7 85.1543C519.777 80.3582 514.405 77.9601 507.584 77.9601C500.975 77.9601 495.726 80.3935 491.839 85.2601C488.198 89.8094 486.378 95.5225 486.378 102.399Z" fill="#323C39"/>
<path d="M584.003 136.889C582.942 136.748 581.14 136.678 578.595 136.678H572.445C571.244 136.678 570.254 136.713 569.477 136.783L569.424 136.678C569.565 136.431 569.636 136.149 569.636 135.831C569.636 135.514 569.6 135.179 569.53 134.826C569.494 134.473 569.353 133.839 569.106 132.922C568.893 132.005 568.558 130.682 568.098 128.954L550.073 66.1109C552.335 66.2519 555.074 66.3225 558.291 66.3225C561.507 66.3225 563.592 66.1814 564.546 65.8993L577.058 113.772L589.251 66.1109C589.781 66.1461 590.258 66.1814 590.682 66.2167H591.849C593.015 66.2872 594.482 66.3225 596.249 66.3225C598.016 66.3225 599.836 66.1814 601.709 65.8993L614.115 113.772L624.77 66.1109C626.891 66.2519 629.665 66.3225 633.094 66.3225C636.522 66.3225 638.607 66.1814 639.349 65.8993L624.081 121.707C622.137 128.126 621.112 131.934 621.006 133.133C620.9 134.332 620.847 135.161 620.847 135.62C620.847 136.078 620.918 136.448 621.059 136.73L620.953 136.889C619.822 136.748 618.038 136.678 615.599 136.678C613.478 136.678 611.552 136.678 609.82 136.678C608.089 136.678 606.834 136.713 606.056 136.783L606.003 136.678C606.145 136.431 606.215 136.149 606.215 135.831C606.215 135.514 606.198 135.196 606.162 134.879C606.127 134.562 606.021 133.962 605.844 133.08C605.703 132.164 605.456 130.823 605.102 129.06L603.671 121.866L594.976 88.9101L586.706 121.707C585.01 128.443 584.126 132.322 584.056 133.345C583.914 135.285 583.932 136.413 584.109 136.73L584.003 136.889Z" fill="#323C39"/>
<path d="M675.954 136.995C674.258 136.783 669.893 136.678 662.86 136.678H661.164V78.1717H650.667C647.557 78.1717 645.719 78.3304 645.153 78.6478C644.588 78.9652 644.146 79.2473 643.828 79.4942L643.669 79.4413V65.8993L643.828 65.7406C644.994 66.1285 648.14 66.3225 653.264 66.3225H686.504C689.614 66.3225 691.452 66.1638 692.018 65.8464C692.583 65.529 693.025 65.2469 693.343 65L693.502 65.0529V78.5949L693.343 78.7536C692.177 78.3657 689.031 78.1717 683.907 78.1717H675.954V136.995Z" fill="#323C39"/>
<path d="M720.3 136.995C716.907 136.783 712.878 136.678 708.212 136.678H706.516V66.058C708.707 66.2343 710.262 66.3225 711.181 66.3225H713.355C716.147 66.3225 718.462 66.1814 720.3 65.8993V94.0942H745.216V66.058C748.15 66.2343 750.995 66.3225 753.752 66.3225C756.544 66.3225 758.293 66.1814 759 65.8993V136.995C757.304 136.783 753.946 136.678 748.927 136.678H745.216V106.79H720.3V136.995Z" fill="#323C39"/>
</svg>
