<svg width="728" height="207" viewBox="0 0 728 207" fill="none" xmlns="http://www.w3.org/2000/svg">
<path d="M252.527 118.72C252.527 136.24 243.772 145 226.263 145C208.754 145 200 136.24 200 118.72V78.5213C200 77.0289 200.551 75.7311 201.654 74.628C202.756 73.5249 204.053 72.9733 205.545 72.9733H208.268C209.76 72.9733 211.057 73.5249 212.159 74.628C213.261 75.7311 213.813 77.0289 213.813 78.5213V119.499C213.813 124.56 214.818 128.226 216.828 130.497C218.903 132.704 222.113 133.807 226.458 133.807C230.803 133.807 233.98 132.704 235.991 130.497C238.066 128.226 239.103 124.56 239.103 119.499V78.5213C239.103 77.0289 239.655 75.7311 240.757 74.628C241.859 73.5249 243.156 72.9733 244.648 72.9733H246.982C248.474 72.9733 249.771 73.5249 250.873 74.628C251.976 75.7311 252.527 77.0289 252.527 78.5213V118.72Z" fill="#323C39"/>
<path d="M280.321 84.0693V105.191C280.321 105.71 280.613 105.969 281.196 105.969H286.06C297.603 105.969 303.374 101.849 303.374 93.608C303.374 86.2756 298.024 82.6093 287.325 82.6093C285.379 82.6093 283.336 82.7716 281.196 83.096C280.613 83.2258 280.321 83.5502 280.321 84.0693ZM272.442 144.027C270.95 144.027 269.653 143.475 268.551 142.372C267.449 141.269 266.897 139.971 266.897 138.479V79.008C266.897 77.4507 267.416 76.0556 268.454 74.8227C269.491 73.5898 270.788 72.9084 272.345 72.7787C277.857 72.2596 283.174 72 288.297 72C297.83 72 304.963 73.7844 309.697 77.3533C314.431 80.8573 316.798 85.8213 316.798 92.2453C316.798 96.8524 315.533 100.908 313.004 104.412C310.569 107.874 307.28 110.323 303.135 111.758C303.036 111.792 302.888 111.802 302.888 111.907V111.907V111.907C302.888 112.065 303.057 112.145 303.189 112.232C306.214 114.216 308.805 118.001 310.962 123.587L316.798 138.868C317.252 140.101 317.09 141.269 316.312 142.372C315.598 143.475 314.593 144.027 313.296 144.027H310.281C308.595 144.027 307.071 143.572 305.709 142.664C304.347 141.691 303.374 140.425 302.791 138.868L297.344 123.879C296.176 120.764 294.847 118.72 293.355 117.747C291.864 116.773 289.302 116.287 285.671 116.287H281.196C280.613 116.287 280.321 116.579 280.321 117.163V138.479C280.321 139.971 279.77 141.269 278.667 142.372C277.63 143.475 276.365 144.027 274.874 144.027H272.442Z" fill="#323C39"/>
<path d="M358.238 145C347.798 145 339.335 141.756 332.85 135.267C326.43 128.713 323.22 119.791 323.22 108.5C323.22 97.0796 326.43 88.1573 332.85 81.7333C339.27 75.2444 348.154 72 359.503 72C364.172 72 368.419 72.3244 372.245 72.9733C373.802 73.2329 375.099 74.0116 376.136 75.3093C377.174 76.5422 377.693 77.9698 377.693 79.592V79.9813C377.693 81.344 377.141 82.4471 376.039 83.2907C374.937 84.1342 373.704 84.3938 372.343 84.0693C368.517 83.2258 364.723 82.804 360.962 82.804C353.115 82.804 347.149 84.9778 343.064 89.3253C339.043 93.608 337.033 99.9996 337.033 108.5C337.033 116.741 339.011 123.1 342.966 127.577C346.987 131.99 352.402 134.196 359.211 134.196C361.999 134.196 364.755 133.807 367.479 133.028C367.998 132.898 368.257 132.541 368.257 131.957V112.685C368.257 112.101 367.998 111.809 367.479 111.809H355.32C353.893 111.809 352.661 111.323 351.624 110.349C350.651 109.311 350.165 108.078 350.165 106.651C350.165 105.158 350.651 103.925 351.624 102.952C352.661 101.914 353.893 101.395 355.32 101.395H375.747C377.239 101.395 378.536 101.946 379.638 103.049C380.74 104.152 381.292 105.45 381.292 106.943V135.267C381.292 136.954 380.805 138.479 379.833 139.841C378.86 141.204 377.595 142.112 376.039 142.567C370.527 144.189 364.593 145 358.238 145Z" fill="#323C39"/>
<path d="M409.605 84.0693V105.191C409.605 105.71 409.897 105.969 410.481 105.969H415.345C426.888 105.969 432.659 101.849 432.659 93.608C432.659 86.2756 427.309 82.6093 416.609 82.6093C414.664 82.6093 412.621 82.7716 410.481 83.096C409.897 83.2258 409.605 83.5502 409.605 84.0693ZM401.726 144.027C400.235 144.027 398.938 143.475 397.836 142.372C396.733 141.269 396.182 139.971 396.182 138.479V79.008C396.182 77.4507 396.701 76.0556 397.738 74.8227C398.776 73.5898 400.073 72.9084 401.629 72.7787C407.141 72.2596 412.459 72 417.582 72C427.114 72 434.248 73.7844 438.982 77.3533C443.716 80.8573 446.083 85.8213 446.083 92.2453C446.083 96.8524 444.818 100.908 442.289 104.412C439.854 107.874 436.564 110.323 432.42 111.758C432.321 111.792 432.173 111.802 432.173 111.907V111.907V111.907C432.173 112.065 432.341 112.145 432.473 112.232C435.499 114.216 438.09 118.001 440.246 123.587L446.083 138.868C446.536 140.101 446.374 141.269 445.596 142.372C444.883 143.475 443.878 144.027 442.581 144.027H439.565C437.879 144.027 436.355 143.572 434.994 142.664C433.632 141.691 432.659 140.425 432.075 138.868L426.628 123.879C425.461 120.764 424.131 118.72 422.64 117.747C421.148 116.773 418.587 116.287 414.955 116.287H410.481C409.897 116.287 409.605 116.579 409.605 117.163V138.479C409.605 139.971 409.054 141.269 407.952 142.372C406.914 143.475 405.65 144.027 404.158 144.027H401.726Z" fill="#323C39"/>
<path d="M503.378 108.5C503.378 91.6289 497.218 83.1933 484.896 83.1933C472.575 83.1933 466.415 91.6289 466.415 108.5C466.415 125.371 472.575 133.807 484.896 133.807C497.218 133.807 503.378 125.371 503.378 108.5ZM508.534 135.364C502.762 141.788 494.883 145 484.896 145C474.91 145 466.998 141.788 461.162 135.364C455.391 128.94 452.505 119.985 452.505 108.5C452.505 97.0147 455.391 88.06 461.162 81.636C466.998 75.212 474.91 72 484.896 72C494.883 72 502.762 75.212 508.534 81.636C514.37 88.06 517.288 97.0147 517.288 108.5C517.288 119.985 514.37 128.94 508.534 135.364Z" fill="#323C39"/>
<path d="M535.463 138.576L523.012 78.424C522.688 76.9964 522.979 75.7311 523.887 74.628C524.86 73.5249 526.06 72.9733 527.486 72.9733H530.307C531.929 72.9733 533.323 73.4924 534.49 74.5307C535.657 75.5689 536.371 76.8667 536.63 78.424L544.691 129.544C544.7 129.595 544.691 129.657 544.727 129.694C544.744 129.71 544.768 129.719 544.801 129.719C544.877 129.719 544.93 129.708 544.962 129.685C545.003 129.657 544.999 129.596 545.007 129.547L552.777 78.424C553.037 76.8667 553.75 75.5689 554.917 74.5307C556.084 73.4924 557.479 72.9733 559.1 72.9733H564.936C566.557 72.9733 567.952 73.4924 569.119 74.5307C570.286 75.5689 570.999 76.8667 571.259 78.424L579.126 129.546C579.134 129.596 579.126 129.655 579.16 129.693C579.177 129.71 579.202 129.719 579.235 129.719C579.268 129.719 579.292 129.71 579.309 129.694C579.345 129.657 579.337 129.595 579.345 129.544L587.406 78.424C587.665 76.8667 588.379 75.5689 589.546 74.5307C590.713 73.4924 592.108 72.9733 593.729 72.9733H596.161C597.587 72.9733 598.754 73.5249 599.662 74.628C600.57 75.7311 600.894 76.9964 600.635 78.424L588.184 138.576C587.86 140.133 587.082 141.431 585.85 142.469C584.618 143.508 583.191 144.027 581.57 144.027H576.414C574.793 144.027 573.366 143.508 572.134 142.469C570.967 141.431 570.254 140.133 569.994 138.576L561.933 87.4561C561.925 87.4046 561.933 87.3433 561.897 87.3061C561.881 87.2896 561.856 87.2813 561.823 87.2813C561.791 87.2813 561.766 87.2896 561.75 87.3061C561.714 87.3433 561.722 87.4045 561.714 87.4561L553.653 138.576C553.393 140.133 552.647 141.431 551.415 142.469C550.248 143.508 548.854 144.027 547.233 144.027H542.077C540.456 144.027 539.029 143.508 537.797 142.469C536.565 141.431 535.787 140.133 535.463 138.576Z" fill="#323C39"/>
<path d="M614.927 84.264C613.436 84.264 612.139 83.7449 611.036 82.7067C609.934 81.6036 609.383 80.3058 609.383 78.8133V78.5213C609.383 77.0289 609.934 75.7311 611.036 74.628C612.139 73.5249 613.436 72.9733 614.927 72.9733H656.365C657.857 72.9733 659.154 73.5249 660.256 74.628C661.358 75.7311 661.91 77.0289 661.91 78.5213V78.8133C661.91 80.3058 661.358 81.6036 660.256 82.7067C659.154 83.7449 657.857 84.264 656.365 84.264H643.331C642.812 84.264 642.552 84.556 642.552 85.14V138.479C642.552 139.971 642.001 141.269 640.899 142.372C639.796 143.475 638.5 144.027 637.008 144.027H634.284C632.793 144.027 631.496 143.475 630.393 142.372C629.291 141.269 628.74 139.971 628.74 138.479V85.14C628.74 84.556 628.48 84.264 627.962 84.264H614.927Z" fill="#323C39"/>
<path d="M680.337 144.027C678.845 144.027 677.548 143.475 676.446 142.372C675.408 141.269 674.889 139.971 674.889 138.479V78.5213C674.889 77.0289 675.408 75.7311 676.446 74.628C677.548 73.5249 678.845 72.9733 680.337 72.9733H682.963C684.454 72.9733 685.751 73.5249 686.854 74.628C687.956 75.7311 688.507 77.0289 688.507 78.5213V100.616C688.507 101.135 688.767 101.395 689.286 101.395H713.604C714.122 101.395 714.382 101.135 714.382 100.616V78.5213C714.382 77.0289 714.933 75.7311 716.036 74.628C717.138 73.5249 718.435 72.9733 719.926 72.9733H722.553C724.044 72.9733 725.309 73.5249 726.346 74.628C727.449 75.7311 728 77.0289 728 78.5213V138.479C728 139.971 727.449 141.269 726.346 142.372C725.309 143.475 724.044 144.027 722.553 144.027H719.926C718.435 144.027 717.138 143.475 716.036 142.372C714.933 141.269 714.382 139.971 714.382 138.479V112.685C714.382 112.101 714.122 111.809 713.604 111.809H689.286C688.767 111.809 688.507 112.101 688.507 112.685V138.479C688.507 139.971 687.956 141.269 686.854 142.372C685.751 143.475 684.454 144.027 682.963 144.027H680.337Z" fill="#323C39"/>
<path d="M252.527 118.72C252.527 136.24 243.772 145 226.263 145C208.754 145 200 136.24 200 118.72V78.5213C200 77.0289 200.551 75.7311 201.654 74.628C202.756 73.5249 204.053 72.9733 205.545 72.9733H208.268C209.76 72.9733 211.057 73.5249 212.159 74.628C213.261 75.7311 213.813 77.0289 213.813 78.5213V119.499C213.813 124.56 214.818 128.226 216.828 130.497C218.903 132.704 222.113 133.807 226.458 133.807C230.803 133.807 233.98 132.704 235.991 130.497C238.066 128.226 239.103 124.56 239.103 119.499V78.5213C239.103 77.0289 239.655 75.7311 240.757 74.628C241.859 73.5249 243.156 72.9733 244.648 72.9733H246.982C248.474 72.9733 249.771 73.5249 250.873 74.628C251.976 75.7311 252.527 77.0289 252.527 78.5213V118.72Z" stroke="#323C39"/>
<path d="M280.321 84.0693V105.191C280.321 105.71 280.613 105.969 281.196 105.969H286.06C297.603 105.969 303.374 101.849 303.374 93.608C303.374 86.2756 298.024 82.6093 287.325 82.6093C285.379 82.6093 283.336 82.7716 281.196 83.096C280.613 83.2258 280.321 83.5502 280.321 84.0693ZM272.442 144.027C270.95 144.027 269.653 143.475 268.551 142.372C267.449 141.269 266.897 139.971 266.897 138.479V79.008C266.897 77.4507 267.416 76.0556 268.454 74.8227C269.491 73.5898 270.788 72.9084 272.345 72.7787C277.857 72.2596 283.174 72 288.297 72C297.83 72 304.963 73.7844 309.697 77.3533C314.431 80.8573 316.798 85.8213 316.798 92.2453C316.798 96.8524 315.533 100.908 313.004 104.412C310.569 107.874 307.28 110.323 303.135 111.758C303.036 111.792 302.888 111.802 302.888 111.907V111.907V111.907C302.888 112.065 303.057 112.145 303.189 112.232C306.214 114.216 308.805 118.001 310.962 123.587L316.798 138.868C317.252 140.101 317.09 141.269 316.312 142.372C315.598 143.475 314.593 144.027 313.296 144.027H310.281C308.595 144.027 307.071 143.572 305.709 142.664C304.347 141.691 303.374 140.425 302.791 138.868L297.344 123.879C296.176 120.764 294.847 118.72 293.355 117.747C291.864 116.773 289.302 116.287 285.671 116.287H281.196C280.613 116.287 280.321 116.579 280.321 117.163V138.479C280.321 139.971 279.77 141.269 278.667 142.372C277.63 143.475 276.365 144.027 274.874 144.027H272.442Z" stroke="#323C39"/>
<path d="M358.238 145C347.798 145 339.335 141.756 332.85 135.267C326.43 128.713 323.22 119.791 323.22 108.5C323.22 97.0796 326.43 88.1573 332.85 81.7333C339.27 75.2444 348.154 72 359.503 72C364.172 72 368.419 72.3244 372.245 72.9733C373.802 73.2329 375.099 74.0116 376.136 75.3093C377.174 76.5422 377.693 77.9698 377.693 79.592V79.9813C377.693 81.344 377.141 82.4471 376.039 83.2907C374.937 84.1342 373.704 84.3938 372.343 84.0693C368.517 83.2258 364.723 82.804 360.962 82.804C353.115 82.804 347.149 84.9778 343.064 89.3253C339.043 93.608 337.033 99.9996 337.033 108.5C337.033 116.741 339.011 123.1 342.966 127.577C346.987 131.99 352.402 134.196 359.211 134.196C361.999 134.196 364.755 133.807 367.479 133.028C367.998 132.898 368.257 132.541 368.257 131.957V112.685C368.257 112.101 367.998 111.809 367.479 111.809H355.32C353.893 111.809 352.661 111.323 351.624 110.349C350.651 109.311 350.165 108.078 350.165 106.651C350.165 105.158 350.651 103.925 351.624 102.952C352.661 101.914 353.893 101.395 355.32 101.395H375.747C377.239 101.395 378.536 101.946 379.638 103.049C380.74 104.152 381.292 105.45 381.292 106.943V135.267C381.292 136.954 380.805 138.479 379.833 139.841C378.86 141.204 377.595 142.112 376.039 142.567C370.527 144.189 364.593 145 358.238 145Z" stroke="#323C39"/>
<path d="M409.605 84.0693V105.191C409.605 105.71 409.897 105.969 410.481 105.969H415.345C426.888 105.969 432.659 101.849 432.659 93.608C432.659 86.2756 427.309 82.6093 416.609 82.6093C414.664 82.6093 412.621 82.7716 410.481 83.096C409.897 83.2258 409.605 83.5502 409.605 84.0693ZM401.726 144.027C400.235 144.027 398.938 143.475 397.836 142.372C396.733 141.269 396.182 139.971 396.182 138.479V79.008C396.182 77.4507 396.701 76.0556 397.738 74.8227C398.776 73.5898 400.073 72.9084 401.629 72.7787C407.141 72.2596 412.459 72 417.582 72C427.114 72 434.248 73.7844 438.982 77.3533C443.716 80.8573 446.083 85.8213 446.083 92.2453C446.083 96.8524 444.818 100.908 442.289 104.412C439.854 107.874 436.564 110.323 432.42 111.758C432.321 111.792 432.173 111.802 432.173 111.907V111.907V111.907C432.173 112.065 432.341 112.145 432.473 112.232C435.499 114.216 438.09 118.001 440.246 123.587L446.083 138.868C446.536 140.101 446.374 141.269 445.596 142.372C444.883 143.475 443.878 144.027 442.581 144.027H439.565C437.879 144.027 436.355 143.572 434.994 142.664C433.632 141.691 432.659 140.425 432.075 138.868L426.628 123.879C425.461 120.764 424.131 118.72 422.64 117.747C421.148 116.773 418.587 116.287 414.955 116.287H410.481C409.897 116.287 409.605 116.579 409.605 117.163V138.479C409.605 139.971 409.054 141.269 407.952 142.372C406.914 143.475 405.65 144.027 404.158 144.027H401.726Z" stroke="#323C39"/>
<path d="M503.378 108.5C503.378 91.6289 497.218 83.1933 484.896 83.1933C472.575 83.1933 466.415 91.6289 466.415 108.5C466.415 125.371 472.575 133.807 484.896 133.807C497.218 133.807 503.378 125.371 503.378 108.5ZM508.534 135.364C502.762 141.788 494.883 145 484.896 145C474.91 145 466.998 141.788 461.162 135.364C455.391 128.94 452.505 119.985 452.505 108.5C452.505 97.0147 455.391 88.06 461.162 81.636C466.998 75.212 474.91 72 484.896 72C494.883 72 502.762 75.212 508.534 81.636C514.37 88.06 517.288 97.0147 517.288 108.5C517.288 119.985 514.37 128.94 508.534 135.364Z" stroke="#323C39"/>
<path d="M535.463 138.576L523.012 78.424C522.688 76.9964 522.979 75.7311 523.887 74.628C524.86 73.5249 526.06 72.9733 527.486 72.9733H530.307C531.929 72.9733 533.323 73.4924 534.49 74.5307C535.657 75.5689 536.371 76.8667 536.63 78.424L544.691 129.544C544.7 129.595 544.691 129.657 544.727 129.694C544.744 129.71 544.768 129.719 544.801 129.719C544.877 129.719 544.93 129.708 544.962 129.685C545.003 129.657 544.999 129.596 545.007 129.547L552.777 78.424C553.037 76.8667 553.75 75.5689 554.917 74.5307C556.084 73.4924 557.479 72.9733 559.1 72.9733H564.936C566.557 72.9733 567.952 73.4924 569.119 74.5307C570.286 75.5689 570.999 76.8667 571.259 78.424L579.126 129.546C579.134 129.596 579.126 129.655 579.16 129.693C579.177 129.71 579.202 129.719 579.235 129.719C579.268 129.719 579.292 129.71 579.309 129.694C579.345 129.657 579.337 129.595 579.345 129.544L587.406 78.424C587.665 76.8667 588.379 75.5689 589.546 74.5307C590.713 73.4924 592.108 72.9733 593.729 72.9733H596.161C597.587 72.9733 598.754 73.5249 599.662 74.628C600.57 75.7311 600.894 76.9964 600.635 78.424L588.184 138.576C587.86 140.133 587.082 141.431 585.85 142.469C584.618 143.508 583.191 144.027 581.57 144.027H576.414C574.793 144.027 573.366 143.508 572.134 142.469C570.967 141.431 570.254 140.133 569.994 138.576L561.933 87.4561C561.925 87.4046 561.933 87.3433 561.897 87.3061C561.881 87.2896 561.856 87.2813 561.823 87.2813C561.791 87.2813 561.766 87.2896 561.75 87.3061C561.714 87.3433 561.722 87.4045 561.714 87.4561L553.653 138.576C553.393 140.133 552.647 141.431 551.415 142.469C550.248 143.508 548.854 144.027 547.233 144.027H542.077C540.456 144.027 539.029 143.508 537.797 142.469C536.565 141.431 535.787 140.133 535.463 138.576Z" stroke="#323C39"/>
<path d="M614.927 84.264C613.436 84.264 612.139 83.7449 611.036 82.7067C609.934 81.6036 609.383 80.3058 609.383 78.8133V78.5213C609.383 77.0289 609.934 75.7311 611.036 74.628C612.139 73.5249 613.436 72.9733 614.927 72.9733H656.365C657.857 72.9733 659.154 73.5249 660.256 74.628C661.358 75.7311 661.91 77.0289 661.91 78.5213V78.8133C661.91 80.3058 661.358 81.6036 660.256 82.7067C659.154 83.7449 657.857 84.264 656.365 84.264H643.331C642.812 84.264 642.552 84.556 642.552 85.14V138.479C642.552 139.971 642.001 141.269 640.899 142.372C639.796 143.475 638.5 144.027 637.008 144.027H634.284C632.793 144.027 631.496 143.475 630.393 142.372C629.291 141.269 628.74 139.971 628.74 138.479V85.14C628.74 84.556 628.48 84.264 627.962 84.264H614.927Z" stroke="#323C39"/>
<path d="M680.337 144.027C678.845 144.027 677.548 143.475 676.446 142.372C675.408 141.269 674.889 139.971 674.889 138.479V78.5213C674.889 77.0289 675.408 75.7311 676.446 74.628C677.548 73.5249 678.845 72.9733 680.337 72.9733H682.963C684.454 72.9733 685.751 73.5249 686.854 74.628C687.956 75.7311 688.507 77.0289 688.507 78.5213V100.616C688.507 101.135 688.767 101.395 689.286 101.395H713.604C714.122 101.395 714.382 101.135 714.382 100.616V78.5213C714.382 77.0289 714.933 75.7311 716.036 74.628C717.138 73.5249 718.435 72.9733 719.926 72.9733H722.553C724.044 72.9733 725.309 73.5249 726.346 74.628C727.449 75.7311 728 77.0289 728 78.5213V138.479C728 139.971 727.449 141.269 726.346 142.372C725.309 143.475 724.044 144.027 722.553 144.027H719.926C718.435 144.027 717.138 143.475 716.036 142.372C714.933 141.269 714.382 139.971 714.382 138.479V112.685C714.382 112.101 714.122 111.809 713.604 111.809H689.286C688.767 111.809 688.507 112.101 688.507 112.685V138.479C688.507 139.971 687.956 141.269 686.854 142.372C685.751 143.475 684.454 144.027 682.963 144.027H680.337Z" stroke="#323C39"/>
<path d="M630 160C630 156.686 632.686 154 636 154H722C725.314 154 728 156.686 728 160V184C728 187.314 725.314 190 722 190H636C632.686 190 630 187.314 630 184V160Z" fill="#323C39"/>
<path d="M646.416 173.312V180.032C646.416 180.203 646.512 180.309 646.704 180.352C647.451 180.459 648.155 180.512 648.816 180.512C650.587 180.512 651.877 180.192 652.688 179.552C653.52 178.891 653.936 177.888 653.936 176.544C653.936 175.349 653.456 174.475 652.496 173.92C651.557 173.344 649.989 173.056 647.792 173.056H646.672C646.501 173.056 646.416 173.141 646.416 173.312ZM646.416 163.968V169.44C646.416 169.632 646.501 169.728 646.672 169.728H647.6C649.584 169.728 651.013 169.461 651.888 168.928C652.784 168.373 653.232 167.563 653.232 166.496C653.232 165.472 652.869 164.715 652.144 164.224C651.419 163.733 650.235 163.488 648.592 163.488C647.845 163.488 647.205 163.531 646.672 163.616C646.501 163.659 646.416 163.776 646.416 163.968ZM643.792 183.744C643.28 183.701 642.853 183.488 642.512 183.104C642.171 182.699 642 182.229 642 181.696V162.304C642 161.771 642.171 161.312 642.512 160.928C642.853 160.523 643.291 160.299 643.824 160.256C645.403 160.085 646.928 160 648.4 160C654.373 160 657.36 161.952 657.36 165.856C657.36 167.157 656.923 168.288 656.048 169.248C655.184 170.197 654.049 170.812 652.643 171.094C652.609 171.101 652.56 171.101 652.56 171.136V171.136V171.136C652.56 171.189 652.619 171.204 652.671 171.212C654.382 171.476 655.721 172.122 656.688 173.152C657.691 174.176 658.192 175.445 658.192 176.96C658.192 179.307 657.424 181.067 655.888 182.24C654.352 183.413 651.963 184 648.72 184C647.099 184 645.456 183.915 643.792 183.744Z" fill="white"/>
<path d="M663.636 183.68C663.146 183.68 662.719 183.499 662.356 183.136C661.994 182.773 661.812 182.347 661.812 181.856V162.144C661.812 161.653 661.994 161.227 662.356 160.864C662.719 160.501 663.146 160.32 663.636 160.32H674.516C675.007 160.32 675.434 160.501 675.797 160.864C676.159 161.227 676.34 161.653 676.34 162.144C676.34 162.635 676.159 163.061 675.797 163.424C675.434 163.765 675.007 163.936 674.516 163.936H666.58C666.388 163.936 666.292 164.032 666.292 164.224V169.376C666.292 169.568 666.388 169.664 666.58 169.664H673.972C674.463 169.664 674.868 169.835 675.188 170.176C675.53 170.517 675.701 170.923 675.701 171.392C675.701 171.861 675.53 172.267 675.188 172.608C674.868 172.928 674.463 173.088 673.972 173.088H666.58C666.388 173.088 666.292 173.184 666.292 173.376V179.776C666.292 179.968 666.388 180.064 666.58 180.064H674.516C675.007 180.064 675.434 180.245 675.797 180.608C676.159 180.949 676.34 181.365 676.34 181.856C676.34 182.347 676.159 182.773 675.797 183.136C675.434 183.499 675.007 183.68 674.516 183.68H663.636Z" fill="white"/>
<path d="M682.087 164.032C681.596 164.032 681.169 163.861 680.806 163.52C680.444 163.157 680.263 162.731 680.263 162.24V162.144C680.263 161.653 680.444 161.227 680.806 160.864C681.169 160.501 681.596 160.32 682.087 160.32H695.718C696.209 160.32 696.636 160.501 696.999 160.864C697.361 161.227 697.542 161.653 697.542 162.144V162.24C697.542 162.731 697.361 163.157 696.999 163.52C696.636 163.861 696.209 164.032 695.718 164.032H691.431C691.26 164.032 691.174 164.128 691.174 164.32V181.856C691.174 182.347 690.993 182.773 690.631 183.136C690.268 183.499 689.841 183.68 689.351 183.68H688.454C687.964 183.68 687.537 183.499 687.174 183.136C686.812 182.773 686.631 182.347 686.631 181.856V164.32C686.631 164.128 686.545 164.032 686.375 164.032H682.087Z" fill="white"/>
<path d="M706.345 164.256C706.311 164.256 706.309 164.305 706.299 164.338L703.497 174.336C703.476 174.4 703.487 174.464 703.529 174.528C703.572 174.592 703.625 174.624 703.689 174.624H709.001C709.065 174.624 709.119 174.592 709.161 174.528C709.204 174.464 709.215 174.4 709.193 174.336L706.391 164.338C706.382 164.305 706.38 164.256 706.345 164.256V164.256V164.256ZM698.025 183.68C697.577 183.68 697.225 183.499 696.969 183.136C696.713 182.773 696.66 182.379 696.809 181.952L703.433 162.048C703.625 161.536 703.935 161.12 704.361 160.8C704.809 160.48 705.3 160.32 705.833 160.32H706.985C707.54 160.32 708.031 160.48 708.457 160.8C708.905 161.12 709.215 161.536 709.385 162.048L716.009 181.952C716.159 182.379 716.105 182.773 715.849 183.136C715.593 183.499 715.241 183.68 714.793 183.68H713.641C713.129 183.68 712.649 183.52 712.201 183.2C711.775 182.859 711.487 182.432 711.337 181.92L710.437 178.742C710.355 178.451 710.294 178.061 709.991 178.049C709.981 178.048 709.971 178.048 709.961 178.048H702.729C702.537 178.048 702.42 178.133 702.377 178.304L701.353 181.92C701.225 182.432 700.937 182.859 700.489 183.2C700.063 183.52 699.583 183.68 699.049 183.68H698.025Z" fill="white"/>
<path d="M49.3629 47.7293C43.2155 0.183722 126.217 -15.4564 129.905 47.7293M49.0371 47.7289C15.0016 48.591 -1.02669 80.553 9.3651 106.129C16.0031 122.467 35.5578 126.554 52.9319 126.554H62.5639M89.6162 129.682L103.142 117.796M62.5639 90.2694L89.0014 115.919M89.6162 85.8902L116.054 62.1176M6 201H171.388M89.0014 48.3545V199.123M130.195 48.5406C164.231 49.4027 180.259 81.3647 169.867 106.941C163.229 123.278 143.675 127.366 126.3 127.366H116.668" stroke="#323C39" stroke-width="12" stroke-linecap="round"/>
</svg>
