<?xml version="1.0" standalone="no"?>
<!DOCTYPE svg PUBLIC "-//W3C//DTD SVG 20010904//EN"
 "http://www.w3.org/TR/2001/REC-SVG-20010904/DTD/svg10.dtd">
<svg version="1.0" xmlns="http://www.w3.org/2000/svg"
 width="256.000000pt" height="256.000000pt" viewBox="0 0 256.000000 256.000000"
 preserveAspectRatio="xMidYMid meet">

<g transform="translate(0.000000,256.000000) scale(0.100000,-0.100000)"
fill="#000000" stroke="none">
<path d="M1180 2303 c-8 -3 -61 -47 -119 -97 -58 -50 -173 -149 -256 -221
-323 -279 -355 -308 -355 -324 0 -9 49 -149 108 -311 98 -268 110 -296 135
-304 21 -8 31 -6 47 9 11 10 20 26 20 35 0 10 -43 135 -95 278 -52 144 -95
265 -94 269 0 4 30 33 66 63 36 30 142 122 237 204 94 81 208 179 253 217 l81
69 233 -103 232 -102 100 -170 c164 -280 209 -359 210 -370 0 -6 -45 -126
-101 -267 -56 -141 -102 -263 -102 -271 0 -20 33 -47 58 -47 12 0 28 10 36 22
18 28 226 555 226 572 0 7 -66 124 -146 261 -80 138 -159 273 -175 302 l-30
51 -273 121 c-151 67 -275 121 -277 120 -2 0 -11 -3 -19 -6z"/>
<path d="M1268 1743 c-8 -10 -31 -56 -51 -103 -20 -47 -63 -146 -95 -220 -33
-74 -106 -241 -162 -370 -56 -129 -111 -254 -121 -277 -49 -109 -173 -393
-189 -434 -17 -42 -17 -49 -4 -68 17 -23 56 -28 71 -8 6 6 61 129 123 272 104
240 205 470 378 863 36 83 69 152 72 152 4 0 17 -42 29 -92 13 -51 43 -165 66
-253 23 -88 84 -320 135 -515 129 -497 118 -465 159 -465 66 0 67 -9 -65 485
-68 257 -264 1009 -264 1014 0 2 -7 12 -16 20 -20 21 -47 20 -66 -1z"/>
</g>
</svg>
